<svg width="153" height="31" viewBox="0 0 153 31" fill="none" xmlns="http://www.w3.org/2000/svg">
<path d="M7.67279 22.7697C7.37336 22.7697 7.06146 22.7323 6.73708 22.6574C6.43765 22.6075 6.12575 22.5077 5.80137 22.358C5.62671 22.1085 5.38966 21.9837 5.09024 21.9837C4.91557 21.7841 4.72843 21.6468 4.52881 21.572C4.3791 21.4722 4.21691 21.3225 4.04225 21.1228C3.89253 20.9232 3.7553 20.8109 3.63054 20.786C3.35606 20.4616 3.09407 20.1248 2.84454 19.7754C2.59502 19.4261 2.37045 19.0643 2.17084 18.69V18.6152C2.17084 18.4405 2.10846 18.3033 1.9837 18.2034C1.88389 18.1036 1.78408 17.9789 1.68427 17.8292C1.58446 17.6545 1.55951 17.4798 1.60941 17.3052C1.65932 17.1056 1.58446 16.9309 1.38484 16.7812C1.30999 16.5566 1.26008 16.3071 1.23513 16.0326C1.23513 15.7581 1.17275 15.5336 1.04799 15.3589C0.998086 15.2591 0.973134 15.1967 0.973134 15.1718C0.973134 15.072 0.998086 14.9846 1.04799 14.9098C1.09789 14.8349 1.13532 14.7476 1.16027 14.6478C1.03551 14.6228 0.973134 14.523 0.973134 14.3483V14.2361C0.973134 13.9616 1.08542 13.7495 1.30999 13.5998C1.53456 13.4501 1.7716 13.3752 2.02112 13.3752C2.42036 13.3752 2.6574 13.5249 2.73226 13.8243L2.84454 14.2361C2.74474 14.3608 2.69483 14.4606 2.69483 14.5355C2.69483 14.6103 2.78216 14.7351 2.95683 14.9098C2.98178 15.0096 2.99426 15.1468 2.99426 15.3215C3.5432 16.1698 4.27929 16.9309 5.20252 17.6046L5.23995 17.6795C5.33976 17.7543 5.42709 17.8167 5.50195 17.8666C5.5768 17.8915 5.66414 17.929 5.76395 17.9789C6.03842 18.1535 6.18813 18.2908 6.21308 18.3906C6.26299 18.4904 6.47508 18.5403 6.84936 18.5403C6.92422 18.5403 6.97412 18.6027 6.99908 18.7274C7.04898 18.8522 7.11136 18.9395 7.18622 18.9894C7.26107 19.0144 7.34841 19.0144 7.44822 18.9894C7.54802 18.9395 7.63536 18.9395 7.71021 18.9894C7.76012 19.0144 7.79755 19.0518 7.8225 19.1017C7.8724 19.1267 7.90983 19.1516 7.93478 19.1766C7.98469 19.2015 8.20926 19.2889 8.60849 19.4386C9.00772 19.5633 9.40696 19.7006 9.80619 19.8503C10.2304 19.975 10.4924 20.0499 10.5922 20.0749C10.7918 19.8503 11.0039 19.6631 11.2285 19.5134C11.453 19.3388 11.6527 19.1267 11.8273 18.8772C12.002 18.8272 12.1018 18.7524 12.1267 18.6526C12.1517 18.5278 12.1766 18.3906 12.2016 18.2409C12.3264 18.0662 12.4386 17.8666 12.5385 17.642C12.6383 17.4175 12.7505 17.2303 12.8753 17.0806C13.1498 16.7562 13.312 16.4069 13.3619 16.0326C13.4367 15.6583 13.574 15.3464 13.7736 15.0969C13.8235 15.047 13.8983 14.9971 13.9982 14.9472C14.1229 14.8973 14.1853 14.8474 14.1853 14.7975V14.76C14.1853 14.5105 14.2352 14.261 14.335 14.0115C14.4598 13.737 14.5721 13.475 14.6719 13.2255C14.7717 13.1257 14.8341 13.0134 14.859 12.8886C14.9089 12.7389 14.9713 12.6142 15.0461 12.5144C15.146 12.4145 15.2208 12.3272 15.2707 12.2524C15.3456 12.1775 15.3705 12.0652 15.3456 11.9155L15.4204 11.3915C15.4204 11.2667 15.4454 11.117 15.4953 10.9424C15.5701 10.7428 15.62 10.5806 15.645 10.4558C15.6949 10.2063 15.7698 9.90686 15.8696 9.55753C15.9694 9.18324 16.0692 8.89629 16.169 8.69668C16.3437 8.3723 16.4684 8.03545 16.5433 7.68612C16.6181 7.31183 16.7055 6.9625 16.8053 6.63813C16.9799 6.53832 17.0673 6.37613 17.0673 6.15156C17.1172 6.05175 17.1796 5.8147 17.2544 5.44042C17.3293 5.06614 17.3667 4.82909 17.3667 4.72929C17.2918 4.72929 17.2045 4.70433 17.1047 4.65443C17.0298 4.40491 17.0548 4.11796 17.1796 3.79358C17.3043 3.44425 17.4665 3.1074 17.6661 2.78302C17.8657 2.45864 18.0155 2.19664 18.1153 1.99703C18.2899 1.72255 18.502 1.48551 18.7515 1.28589C19.0011 1.06132 19.3005 0.949036 19.6498 0.949036C19.7746 0.949036 19.9118 0.961512 20.0615 0.986464C20.2112 0.986464 20.3235 1.03637 20.3984 1.13618C20.7228 1.26094 20.8849 1.44808 20.8849 1.6976C20.8849 1.87227 20.8226 2.08436 20.6978 2.33388C20.573 2.55845 20.4857 2.78302 20.4358 3.00759C20.1364 3.13235 19.9617 3.44425 19.9118 3.94329C19.8869 4.41738 19.837 4.79167 19.7621 5.06614C19.7371 5.1909 19.6872 5.29071 19.6124 5.36557C19.5375 5.44042 19.5625 5.55271 19.6872 5.70242V5.92699L19.575 6.00185L19.7247 6.26384C19.7247 6.3387 19.7247 6.50089 19.7247 6.75041C19.7496 6.97498 19.7746 7.19955 19.7995 7.42412C19.8245 7.62374 19.8245 7.73602 19.7995 7.76097C19.7746 7.81088 19.7247 7.83583 19.6498 7.83583C19.5001 7.83583 19.4003 7.77345 19.3504 7.64869C19.2755 7.44907 19.2381 7.2245 19.2381 6.97498C19.2631 6.72546 19.2007 6.50089 19.051 6.30127C19.026 6.22641 19.0135 6.15156 19.0135 6.0767C19.0135 6.00185 19.0135 5.95194 19.0135 5.92699C19.0135 5.82718 19.0135 5.75232 19.0135 5.70242C19.0385 5.65252 19.051 5.61509 19.051 5.59013C19.051 5.54023 18.9512 5.36557 18.7515 5.06614V4.69186C18.4771 5.04119 18.2774 5.39052 18.1527 5.73985C18.0279 5.83966 17.9531 5.96442 17.9281 6.11413C17.9032 6.26384 17.8657 6.40108 17.8158 6.52584C17.5663 7.1746 17.3168 7.82335 17.0673 8.47211C16.8427 9.12086 16.6181 9.76962 16.3936 10.4184C16.2189 10.5182 16.1316 10.6554 16.1316 10.8301C16.1316 10.9798 16.1066 11.1295 16.0567 11.2792L15.3456 13.2255C15.1709 13.2754 15.0836 13.3627 15.0836 13.4875C15.1085 13.5873 15.121 13.6996 15.121 13.8243C15.121 13.999 15.0711 14.1612 14.9713 14.3109C14.8964 14.4357 14.8341 14.5729 14.7841 14.7226C14.4348 15.6958 14.0106 16.6814 13.5116 17.6795C13.0375 18.6775 12.4761 19.5883 11.8273 20.4117C12.1766 20.4866 12.5135 20.5489 12.8379 20.5989C13.1623 20.6737 13.4866 20.7361 13.811 20.786C14.1354 20.8359 14.5346 20.8858 15.0087 20.9357C15.5078 20.9856 15.882 21.0355 16.1316 21.0854C16.406 21.1353 16.7055 21.1728 17.0298 21.1977C17.3542 21.2227 17.6536 21.2351 17.9281 21.2351H18.1901C18.2899 21.2351 18.3648 21.2351 18.4147 21.2351C18.4895 21.2601 18.5893 21.2975 18.7141 21.3474C18.764 21.3724 18.8139 21.3599 18.8638 21.31C18.9137 21.285 18.9636 21.2726 19.0135 21.2726C19.1383 21.2476 19.2631 21.2351 19.3878 21.2351C19.5126 21.2601 19.6249 21.2726 19.7247 21.2726C19.7746 21.2476 19.837 21.2351 19.9118 21.2351C20.0116 21.2351 20.099 21.2476 20.1738 21.2726C20.2736 21.3225 20.361 21.3474 20.4358 21.3474C20.5606 21.3474 20.6604 21.3225 20.7352 21.2726C20.8101 21.2476 20.8974 21.2351 20.9972 21.2351C21.122 21.3349 21.2343 21.3848 21.3341 21.3848C21.4339 21.3848 21.5337 21.3225 21.6335 21.1977C21.908 21.1728 22.2324 21.1228 22.6066 21.048C23.0059 20.9731 23.1681 20.7236 23.0932 20.2994C23.0683 20.0998 23.0308 19.975 22.9809 19.9251C22.931 19.8752 22.8437 19.7879 22.7189 19.6631C22.6191 19.5883 22.5318 19.4885 22.4569 19.3637C22.3821 19.239 22.2823 19.1641 22.1575 19.1392C22.1076 19.0892 22.0827 19.0144 22.0827 18.9146C22.0827 18.7649 22.17 18.69 22.3446 18.69C22.4445 18.69 22.5443 18.7399 22.6441 18.8397C22.7439 18.8896 22.8063 18.9645 22.8312 19.0643C22.8811 19.1641 22.956 19.2514 23.0558 19.3263C23.1057 19.4261 23.193 19.501 23.3178 19.5509C23.4425 19.6008 23.5548 19.6756 23.6546 19.7754C23.9291 20.1747 24.0663 20.5365 24.0663 20.8608C24.0663 21.3349 23.8543 21.7342 23.4301 22.0586C23.0059 22.3829 22.5068 22.5576 21.9329 22.5825C21.883 22.5326 21.8082 22.5077 21.7084 22.5077C21.6086 22.5077 21.5212 22.5202 21.4464 22.5451C21.3965 22.5701 21.3216 22.5825 21.2218 22.5825C20.7477 22.5576 20.2611 22.5077 19.7621 22.4328C19.2631 22.358 18.7765 22.2956 18.3024 22.2457C18.2525 22.2457 18.2026 22.2332 18.1527 22.2083C18.1028 22.2083 18.0529 22.2083 18.003 22.2083C17.8283 22.0835 17.6037 22.0211 17.3293 22.0211C17.0797 22.0211 16.8552 21.9962 16.6556 21.9463C16.5807 21.9213 16.406 21.8839 16.1316 21.834C15.882 21.7841 15.6325 21.7342 15.383 21.6843C15.1584 21.6344 15.0212 21.6219 14.9713 21.6468C14.6968 21.5969 14.4099 21.5221 14.1104 21.4223C13.836 21.3474 13.5615 21.2975 13.287 21.2726C12.9876 21.2227 12.6757 21.1478 12.3513 21.048C12.0519 20.9731 11.7525 20.8983 11.453 20.8234C10.9041 21.4223 10.3177 21.8964 9.69391 22.2457C9.07011 22.595 8.3964 22.7697 7.67279 22.7697ZM7.41079 22.1334C8.03459 22.1334 8.55859 21.9712 8.98277 21.6468C9.43191 21.3225 9.8561 20.9357 10.2553 20.4866C10.0058 20.4367 9.75629 20.3743 9.50677 20.2994C9.25725 20.2246 9.00773 20.1372 8.7582 20.0374C8.53363 19.9376 8.33402 19.8628 8.15935 19.8129C8.00964 19.738 7.81002 19.6756 7.5605 19.6257C7.46069 19.6008 7.34841 19.5633 7.22365 19.5134C7.09889 19.4635 6.97413 19.4261 6.84936 19.4011C6.6747 19.3263 6.51251 19.2265 6.3628 19.1017C6.21308 18.952 6.03842 18.9021 5.8388 18.952C5.71404 18.9021 5.5768 18.8522 5.42709 18.8023C5.30233 18.7524 5.17757 18.69 5.05281 18.6152C4.92805 18.5153 4.84072 18.428 4.79081 18.3532C4.74091 18.2533 4.61615 18.2284 4.41653 18.2783L4.1171 18.1286C4.0173 18.0288 3.92996 17.929 3.85511 17.8292C3.8052 17.7294 3.69292 17.6795 3.51825 17.6795C3.31864 17.6795 3.09407 17.5672 2.84454 17.3426C2.59502 17.0931 2.40788 16.881 2.28312 16.7063C2.40788 17.0307 2.53264 17.3426 2.6574 17.642C2.78216 17.9414 2.90693 18.2409 3.03169 18.5403C3.08159 18.715 3.14397 18.8647 3.21883 18.9894C3.31864 19.0892 3.34359 19.2265 3.29368 19.4011C3.29368 19.4511 3.35606 19.5134 3.48082 19.5883C3.60559 19.6382 3.71787 19.738 3.81768 19.8877C3.86758 20.0873 3.92996 20.1996 4.00482 20.2246C4.07968 20.2495 4.15453 20.3244 4.22939 20.4491C4.42901 20.6737 4.54129 20.8484 4.56624 20.9731C4.5912 21.0979 4.81576 21.1852 5.23995 21.2351L5.5768 21.4597C5.67661 21.6344 5.7889 21.7217 5.91366 21.7217C6.03842 21.7467 6.17566 21.7841 6.32537 21.834C6.52499 21.8839 6.69965 21.9463 6.84936 22.0211C7.02403 22.096 7.21117 22.1334 7.41079 22.1334ZM30.4411 8.3224C30.3663 8.3224 30.2914 8.29744 30.2166 8.24754C30.1667 8.19763 30.0918 8.13525 29.992 8.0604C29.9421 8.03545 29.8797 8.01049 29.8049 7.98554C29.7549 7.93564 29.73 7.86078 29.73 7.76097C29.705 7.73602 29.6551 7.72354 29.5803 7.72354C29.4555 7.72354 29.3931 7.63621 29.3931 7.46155C29.3931 7.26193 29.4929 7.12469 29.6926 7.04984L29.8797 6.90012V6.93755L30.0294 6.75041H30.1043C30.254 6.75041 30.3538 6.67555 30.4037 6.52584C30.4786 6.37613 30.6283 6.27632 30.8528 6.22641C31.0026 6.17651 31.1273 6.18899 31.2271 6.26384C31.3269 6.3387 31.4517 6.37613 31.6014 6.37613C31.7511 6.37613 31.9133 6.32622 32.088 6.22641L32.6494 6.11413C32.7243 6.11413 32.7617 6.13908 32.7617 6.18899C32.7617 6.23889 32.6868 6.30127 32.5371 6.37613C32.4124 6.45098 32.325 6.51336 32.2751 6.56327L32.2377 6.6007L32.2003 6.67555L32.0505 6.86269C31.9008 7.03736 31.7262 7.24945 31.5265 7.49897C31.3519 7.72354 31.1647 7.91068 30.9651 8.0604C30.7406 8.23506 30.5659 8.3224 30.4411 8.3224ZM24.752 20.1123C24.6023 20.1123 24.5275 20.025 24.5275 19.8503C24.5275 19.7255 24.5649 19.5758 24.6398 19.4011C24.8394 18.977 25.0639 18.3781 25.3135 17.6046C25.5879 16.8311 25.9248 16.1698 26.324 15.6209C26.5985 15.072 26.848 14.5355 27.0726 14.0115C27.3221 13.4625 27.5592 12.9136 27.7837 12.3646C27.7837 12.3646 27.7588 12.3522 27.7089 12.3272C27.6839 12.2773 27.6714 12.2274 27.6714 12.1775C27.5217 12.0777 27.3595 11.9405 27.1849 11.7658C27.0352 11.5662 27.0227 11.3666 27.1474 11.1669C27.1974 11.117 27.2348 11.0921 27.2597 11.0921C27.2847 11.0921 27.2972 11.0921 27.2972 11.0921C27.2972 11.0671 27.2847 11.0547 27.2597 11.0547C27.2597 11.0297 27.2597 11.0172 27.2597 11.0172C27.2597 10.9174 27.3096 10.855 27.4094 10.8301C27.5093 10.8051 27.5592 10.7677 27.5592 10.7178C27.6091 10.3685 27.9085 10.1065 28.4574 9.93181C29.0064 9.75714 29.4929 9.66981 29.9171 9.66981C30.3413 9.66981 30.5534 9.73219 30.5534 9.85695C30.5534 9.90686 30.4786 9.99419 30.3288 10.119C30.254 10.1689 30.1292 10.2811 29.9546 10.4558C29.7799 10.6305 29.6177 10.8426 29.468 11.0921L29.1686 11.5412C29.1436 11.5911 29.1062 11.6535 29.0563 11.7284C29.0313 11.7783 28.9939 11.8282 28.944 11.8781C28.5448 12.6017 28.2204 13.213 27.9709 13.7121C27.7213 14.2111 27.4219 14.8474 27.0726 15.6209C27.0227 15.7706 26.9977 15.8704 26.9977 15.9203C26.9977 16.095 27.0975 16.1823 27.2972 16.1823C27.4469 16.1823 27.5966 16.1449 27.7463 16.07L28.1206 15.9203C28.7194 15.3714 29.3432 14.9098 29.992 14.5355C30.0169 14.5355 30.0294 14.5355 30.0294 14.5355C30.0544 14.5105 30.0793 14.4981 30.1043 14.4981C30.1791 14.4981 30.229 14.548 30.254 14.6478C30.2789 14.7226 30.254 14.785 30.1791 14.8349C29.4555 15.2341 28.7818 15.7457 28.158 16.3695C28.1331 16.4194 28.1081 16.4693 28.0832 16.5192C28.0582 16.5691 28.0208 16.619 27.9709 16.6689C27.921 16.7188 27.8461 16.8061 27.7463 16.9309C27.6714 17.0556 27.634 17.1305 27.634 17.1555C27.6091 17.2303 27.5716 17.2553 27.5217 17.2303C27.4968 17.2054 27.4219 17.2428 27.2972 17.3426C27.2722 17.3675 27.2473 17.4175 27.2223 17.4923C27.2223 17.5672 27.2098 17.6295 27.1849 17.6795C27.1599 17.7543 27.11 17.8167 27.0352 17.8666C26.9853 17.8915 26.9603 17.9165 26.9603 17.9414C26.9354 18.0413 26.8854 18.1036 26.8106 18.1286C26.7607 18.1286 26.7108 18.1535 26.6609 18.2034C26.6359 18.2284 26.6359 18.2658 26.6609 18.3157C26.6858 18.3656 26.6734 18.4155 26.6235 18.4654C26.5985 18.5403 26.5735 18.5777 26.5486 18.5777C26.5236 18.5528 26.4862 18.5653 26.4363 18.6152C26.3365 18.715 26.2616 18.7649 26.2117 18.7649C26.062 18.8148 25.9996 18.8522 26.0246 18.8772C26.0745 18.9021 26.1119 18.9271 26.1369 18.952C26.1868 18.952 26.1494 18.9894 26.0246 19.0643C25.9747 19.0892 25.9248 19.1641 25.8749 19.2889C25.825 19.3887 25.7751 19.4635 25.7252 19.5134C25.6503 19.5633 25.5755 19.6008 25.5006 19.6257C25.4507 19.6507 25.3883 19.7006 25.3135 19.7754C25.0889 20 24.9018 20.1123 24.752 20.1123ZM30.9274 20.1123C30.7777 20.1123 30.7028 20.025 30.7028 19.8503C30.7028 19.7255 30.7403 19.5758 30.8151 19.4011C31.0147 18.977 31.2518 18.3781 31.5263 17.6046C31.8007 16.8311 32.1376 16.1698 32.5368 15.6209L33.9965 12.3646C33.9965 12.3646 33.9716 12.3522 33.9217 12.3272C33.8718 12.2773 33.8468 12.2274 33.8468 12.1775C33.6971 12.0777 33.5349 11.9405 33.3602 11.7658C33.2105 11.5662 33.198 11.3666 33.3228 11.1669C33.3727 11.117 33.4101 11.0921 33.4351 11.0921C33.46 11.0921 33.4725 11.0921 33.4725 11.0921V11.0172C33.4725 10.9174 33.51 10.855 33.5848 10.8301C33.6846 10.8051 33.747 10.7677 33.7719 10.7178C33.8219 10.3685 34.1088 10.1065 34.6328 9.93181C35.1817 9.75714 35.6683 9.66981 36.0925 9.66981C36.5167 9.66981 36.7288 9.73219 36.7288 9.85695C36.7288 9.93181 36.6539 10.0191 36.5042 10.119C36.4543 10.1689 36.3295 10.2811 36.1299 10.4558C35.9553 10.6305 35.7931 10.8426 35.6434 11.0921L35.3814 11.5412L35.1194 11.8781C34.7201 12.6017 34.3958 13.213 34.1462 13.7121C33.8967 14.2111 33.5973 14.8474 33.248 15.6209C33.1731 15.7706 33.1357 15.8954 33.1357 15.9952C33.1357 16.1199 33.1856 16.1823 33.2854 16.1823C33.3353 16.1823 33.3852 16.1698 33.4351 16.1449C33.51 16.095 33.5848 16.0576 33.6597 16.0326C33.8593 15.9078 34.0215 15.7956 34.1462 15.6958C34.2959 15.571 34.4581 15.4462 34.6328 15.3215C34.7077 15.2466 34.77 15.2466 34.8199 15.3215C34.8698 15.3714 34.8698 15.4462 34.8199 15.546C34.7201 15.7457 34.6453 15.8704 34.5954 15.9203C34.5704 15.9453 34.533 15.9702 34.4831 15.9952C34.4332 16.0201 34.3209 16.1324 34.1462 16.332L33.9965 16.6315C33.9466 16.6814 33.8842 16.7812 33.8094 16.9309C33.7595 17.0556 33.7345 17.1305 33.7345 17.1555C33.7345 17.2054 33.7096 17.2303 33.6597 17.2303C33.6098 17.2054 33.5349 17.2428 33.4351 17.3426C33.4101 17.3675 33.3977 17.4175 33.3977 17.4923C33.4226 17.5672 33.4101 17.6295 33.3602 17.6795C33.3353 17.7543 33.2979 17.8167 33.248 17.8666C33.198 17.8915 33.1731 17.9165 33.1731 17.9414C33.1481 18.0413 33.0982 18.1036 33.0234 18.1286C32.9735 18.1286 32.9236 18.1535 32.8737 18.2034C32.8487 18.2034 32.8362 18.2284 32.8362 18.2783C32.8362 18.4779 32.8113 18.5653 32.7614 18.5403C32.7115 18.5153 32.6616 18.5403 32.6117 18.6152C32.5618 18.715 32.4994 18.7649 32.4245 18.7649C32.2748 18.8148 32.2124 18.8522 32.2374 18.8772C32.2623 18.9021 32.2998 18.9271 32.3497 18.952C32.3996 18.952 32.3622 18.9894 32.2374 19.0643C32.1625 19.0892 32.1002 19.1641 32.0503 19.2889C32.0003 19.3887 31.9504 19.4635 31.9005 19.5134C31.8506 19.5633 31.7883 19.6008 31.7134 19.6257C31.6385 19.6507 31.5762 19.7006 31.5263 19.7754C31.3017 20 31.1021 20.1123 30.9274 20.1123ZM37.5896 19.2889C37.4399 19.2889 37.3152 19.239 37.2153 19.1392H37.1779C36.9533 19.1392 36.9159 19.0393 37.0656 18.8397C37.0906 18.69 37.1405 18.5777 37.2153 18.5029C37.2902 18.4031 37.3775 18.3033 37.4773 18.2034C37.5023 18.2034 37.5148 18.2034 37.5148 18.2034C37.5148 18.1785 37.5148 18.166 37.5148 18.166C37.5896 17.9914 37.6894 17.8541 37.8142 17.7543L37.9639 17.5297C38.0637 17.4299 38.1635 17.2802 38.2633 17.0806C38.3631 16.9558 38.4255 16.8685 38.4505 16.8186C38.4754 16.7437 38.5253 16.619 38.6002 16.4443C38.6002 16.3944 38.6376 16.3196 38.7125 16.2197C38.7873 16.1199 38.8372 16.0576 38.8622 16.0326L39.0868 15.4712C39.1117 15.3464 39.1491 15.2466 39.199 15.1718C39.2489 15.0969 39.2864 14.9971 39.3113 14.8723L39.5359 14.3109C39.5858 14.1362 39.6482 14.0115 39.723 13.9366H39.7605C39.7355 13.8618 39.7605 13.762 39.8353 13.6372C39.8852 13.4625 39.9227 13.3128 39.9476 13.1881C39.9975 13.0384 40.0225 12.9635 40.0225 12.9635L40.1347 12.2898C40.1098 11.8406 39.9227 11.6161 39.5733 11.6161C39.4486 11.6161 39.2864 11.6535 39.0868 11.7284C38.6626 11.8531 38.2134 12.1151 37.7393 12.5144C37.7144 12.5393 37.677 12.5767 37.6271 12.6266C37.6021 12.6765 37.5647 12.7264 37.5148 12.7764C37.4898 12.8013 37.4649 12.8138 37.4399 12.8138C37.4399 12.7888 37.415 12.8013 37.3651 12.8512C37.3401 12.8762 37.3276 12.9136 37.3276 12.9635C37.3276 12.9884 37.3152 13.0134 37.2902 13.0384C37.2652 13.0633 37.2278 13.0883 37.1779 13.1132C37.153 13.1132 37.1155 13.1382 37.0656 13.1881C37.0407 13.1881 37.0157 13.213 36.9908 13.2629C36.9908 13.2879 36.9783 13.3128 36.9533 13.3378C36.8535 13.4376 36.7288 13.5623 36.5791 13.7121C36.4294 13.8368 36.2672 13.9616 36.0925 14.0863L35.9428 14.1986C35.9178 14.2236 35.8804 14.2735 35.8305 14.3483C35.8055 14.3982 35.7681 14.4481 35.7182 14.4981C35.6184 14.5979 35.5311 14.7101 35.4562 14.8349C35.3814 14.9597 35.2816 15.0345 35.1568 15.0595H35.0819C34.9572 15.0595 34.9572 14.9472 35.0819 14.7226C35.1069 14.6727 35.1693 14.5854 35.2691 14.4606C35.3938 14.3359 35.4687 14.261 35.4936 14.2361L35.6434 14.0863C35.6933 14.0364 35.7182 13.999 35.7182 13.9741C35.7182 13.9491 35.7307 13.9242 35.7556 13.8992L36.1299 13.5623L36.2796 13.3752L36.5416 13.1881L37.2902 12.4769C37.3401 12.427 37.415 12.3397 37.5148 12.2149C37.6395 12.0902 37.7269 12.0153 37.7768 11.9904C37.9015 11.8656 38.0388 11.7658 38.1885 11.6909C38.3382 11.5911 38.4879 11.4788 38.6376 11.3541C38.7624 11.2543 38.8996 11.1669 39.0493 11.0921C39.1491 10.9923 39.224 10.9299 39.2739 10.9049C39.4985 10.7802 39.6232 10.7053 39.6482 10.6804C39.6731 10.6554 39.7605 10.618 39.9102 10.5681C40.1347 10.4932 40.3967 10.4558 40.6962 10.4558C40.8958 10.4558 41.0205 10.4683 41.0705 10.4932C41.1952 10.5431 41.32 10.593 41.4447 10.6429C41.5695 10.6928 41.6319 10.8176 41.6319 11.0172C41.6319 11.142 41.6444 11.2168 41.6693 11.2418C41.6943 11.2418 41.6943 11.3167 41.6693 11.4664C41.6693 11.5662 41.6568 11.7284 41.6319 11.9529C41.6319 12.1775 41.6069 12.3522 41.557 12.4769C41.5321 12.6017 41.4697 12.7764 41.3699 13.0009C41.295 13.2005 41.2326 13.3752 41.1827 13.5249L41.0705 13.8243L40.7336 14.4232C40.7086 14.4481 40.6213 14.5105 40.4716 14.6103C40.3219 14.6852 40.2221 14.7476 40.1722 14.7975C40.1472 14.8224 40.1847 14.8723 40.2845 14.9472C40.3843 15.022 40.3718 15.1468 40.247 15.3215C40.1971 15.4213 40.1347 15.4837 40.0599 15.5086C39.985 15.5086 39.9102 15.571 39.8353 15.6958C39.5359 16.1199 39.2988 16.4194 39.1242 16.594L38.7125 17.1555L38.6002 17.2677C38.7 17.2677 38.7873 17.3301 38.8622 17.4549C38.8871 17.5297 38.937 17.5921 39.0119 17.642C39.0868 17.6919 39.1242 17.7917 39.1242 17.9414C39.1242 18.1161 39.0244 18.3656 38.8248 18.69C38.6251 19.0144 38.3881 19.1766 38.1136 19.1766C38.0138 19.1766 37.9265 19.2015 37.8516 19.2514C37.7768 19.2764 37.6894 19.2889 37.5896 19.2889ZM47.6578 20.1871C47.4582 20.1871 47.321 20.1747 47.2461 20.1497C46.9966 20.0998 46.772 20.025 46.5724 19.9251C46.3977 19.8253 46.248 19.6382 46.1233 19.3637C46.0734 19.239 46.011 19.0768 45.9361 18.8772C45.8613 18.6775 45.7989 18.4904 45.749 18.3157C45.724 18.191 45.7116 18.0413 45.7116 17.8666C45.7116 17.7668 45.6991 17.6919 45.6741 17.642C45.6741 17.5672 45.6741 17.4798 45.6741 17.38C45.6741 17.2802 45.6616 17.1679 45.6367 17.0432C45.6117 16.9184 45.6117 16.8061 45.6367 16.7063V15.9952C45.6367 15.8704 45.6367 15.7581 45.6367 15.6583C45.6367 15.5336 45.6492 15.4462 45.6741 15.3963C45.724 15.1718 45.749 15.0595 45.749 15.0595C45.749 15.0345 45.7615 14.9098 45.7864 14.6852C45.8114 14.3858 45.8114 14.0739 45.7864 13.7495C45.7864 13.4251 45.7989 13.1631 45.8238 12.9635C45.8987 12.2149 45.7615 11.8406 45.4121 11.8406C45.2624 11.8406 45.0628 11.903 44.8133 12.0278C44.7883 12.0777 44.7384 12.1151 44.6636 12.1401C44.5887 12.1401 44.5014 12.1775 44.4016 12.2524L44.2519 12.3646C44.2519 12.3896 44.2144 12.4021 44.1396 12.4021C44.0897 12.3771 44.0772 12.3896 44.1021 12.4395C44.1021 12.6391 44.0398 12.689 43.915 12.5892L43.5407 12.8886L43.4284 13.0384L43.391 13.0758C43.2912 13.1756 43.2039 13.2255 43.129 13.2255L42.9793 13.3378C42.9793 13.3627 42.9543 13.4126 42.9044 13.4875C42.8795 13.5374 42.8296 13.5499 42.7547 13.5249L42.5676 13.7121C42.4678 13.8618 42.3804 13.9491 42.3056 13.9741C42.2557 13.999 42.1933 14.024 42.1184 14.0489L41.7816 14.4232L41.6319 14.4606C41.6319 14.5604 41.5196 14.7101 41.295 14.9098C41.0954 15.1094 40.9706 15.2466 40.9207 15.3215C40.8459 15.3963 40.771 15.4338 40.6962 15.4338C40.6463 15.4338 40.6213 15.4088 40.6213 15.3589C40.6213 15.2591 40.6712 15.1593 40.771 15.0595C40.8708 14.9597 41.0205 14.7725 41.2202 14.4981C41.4447 14.2236 41.5695 14.0863 41.5944 14.0863C41.7192 13.9616 41.8065 13.8368 41.8564 13.7121C41.9063 13.5873 41.9937 13.475 42.1184 13.3752C42.1184 13.4251 42.1434 13.4501 42.1933 13.4501C42.2432 13.4501 42.2931 13.3877 42.343 13.2629C42.4179 13.1132 42.4678 13.0508 42.4927 13.0758L43.1664 12.5144C43.1415 12.4894 43.2039 12.4395 43.3536 12.3646C43.4534 12.3147 43.5158 12.2898 43.5407 12.2898C43.5657 12.2898 43.628 12.2149 43.7279 12.0652L43.9899 11.8781C44.0148 11.8282 44.0398 11.8282 44.0647 11.8781C44.0897 11.928 44.1271 11.9529 44.177 11.9529L44.2519 11.6909C44.3018 11.5911 44.3891 11.5163 44.5138 11.4664C44.6386 11.4165 44.7634 11.3541 44.8881 11.2792C45.0129 11.1545 45.1377 11.0422 45.2624 10.9424C45.3872 10.8426 45.487 10.8051 45.5618 10.8301H45.7116C46.0359 10.7053 46.3229 10.6429 46.5724 10.6429C46.9716 10.6429 47.2835 10.7927 47.5081 11.0921C47.6079 11.2168 47.6703 11.3541 47.6952 11.5038C47.7202 11.5287 47.7202 11.5662 47.6952 11.6161C47.6952 11.641 47.7077 11.6785 47.7327 11.7284C47.7576 11.7783 47.8075 11.8406 47.8824 11.9155C47.9572 11.9654 47.9947 12.0278 47.9947 12.1026V12.1775C47.9947 12.2524 47.9448 12.3397 47.845 12.4395C47.9697 12.5393 48.0196 12.6017 47.9947 12.6266C47.9697 12.6266 47.9448 12.6641 47.9198 12.7389L47.8824 13.2629C47.8574 13.4376 47.8075 13.5748 47.7327 13.6746C47.6828 13.7495 47.6329 13.8867 47.583 14.0863C47.6828 14.2361 47.6828 14.3234 47.583 14.3483C47.583 14.3733 47.558 14.3858 47.5081 14.3858L47.4707 14.5355C47.5206 14.6353 47.5455 14.6852 47.5455 14.6852L47.4332 14.9098C47.4332 14.9098 47.4707 14.9098 47.5455 14.9098C47.4956 14.9597 47.4457 15.0595 47.3958 15.2092C47.3709 15.3339 47.3459 15.4338 47.321 15.5086C47.296 15.6334 47.2461 15.6958 47.1713 15.6958C47.0964 15.6958 47.0714 15.7581 47.0964 15.8829C47.1213 15.9078 47.1338 15.9952 47.1338 16.1449C47.1338 16.2697 47.1089 16.332 47.059 16.332L46.9841 16.7812C46.9841 16.8061 46.9841 16.8311 46.9841 16.856C47.0091 16.881 47.0215 16.9059 47.0215 16.9309C47.0215 17.0556 46.9966 17.1804 46.9467 17.3052C46.9217 17.405 46.8843 17.5173 46.8344 17.642C46.8094 17.7668 46.7845 17.904 46.7595 18.0537C46.7595 18.1785 46.7595 18.3033 46.7595 18.428C46.7595 18.5278 46.7595 18.6401 46.7595 18.7649C46.7845 18.8647 46.8094 18.9645 46.8344 19.0643C46.8594 19.0892 46.8968 19.1641 46.9467 19.2889C47.0215 19.4136 47.059 19.4885 47.059 19.5134C47.1089 19.5633 47.1463 19.5883 47.1713 19.5883C47.2212 19.6132 47.296 19.6257 47.3958 19.6257C47.5206 19.6008 47.6079 19.6132 47.6578 19.6631C47.8824 19.6881 48.1693 19.5758 48.5187 19.3263C48.893 19.0518 49.2298 18.7524 49.5292 18.428C49.6041 18.3532 49.6789 18.3157 49.7538 18.3157C49.8287 18.3157 49.8786 18.3532 49.9035 18.428C49.9285 18.5029 49.9035 18.6027 49.8287 18.7274C49.4045 19.3013 49.0052 19.6881 48.631 19.8877C48.2816 20.0873 47.9572 20.1871 47.6578 20.1871ZM58.3515 20.1123C58.2018 20.1123 58.1269 20.025 58.1269 19.8503C58.1269 19.7255 58.1643 19.5758 58.2392 19.4011C58.4388 18.977 58.6634 18.3781 58.9129 17.6046C59.1874 16.8311 59.5242 16.1698 59.9235 15.6209C60.1979 15.072 60.4475 14.5355 60.672 14.0115C60.9215 13.4625 61.1586 12.9136 61.3832 12.3646C61.3832 12.3646 61.3582 12.3522 61.3083 12.3272C61.2584 12.2773 61.2334 12.2274 61.2334 12.1775C61.1087 12.0777 60.959 11.9405 60.7843 11.7658C60.6096 11.5662 60.5972 11.3666 60.7469 11.1669C60.7968 11.117 60.8217 11.0921 60.8217 11.0921C60.8467 11.0921 60.8592 11.0921 60.8592 11.0921C60.8592 11.0671 60.8467 11.0547 60.8217 11.0547C60.8217 11.0547 60.8217 11.0422 60.8217 11.0172L60.7843 10.9798C60.7594 10.9798 60.7344 10.9798 60.7094 10.9798C60.7094 10.9548 60.697 10.9424 60.672 10.9424C60.5722 10.9424 60.4599 10.9673 60.3352 11.0172C60.2104 11.0422 60.0856 11.0547 59.9609 11.0547C59.8112 11.0547 59.6116 11.117 59.362 11.2418C59.1125 11.3416 58.8879 11.4289 58.6883 11.5038C58.5885 11.5287 58.5261 11.5412 58.5012 11.5412C58.5012 11.5163 58.4513 11.5287 58.3515 11.5787C58.3265 11.6036 58.3265 11.5662 58.3515 11.4664C58.4014 11.3416 58.4263 11.2543 58.4263 11.2044C58.4263 11.1794 58.4139 11.1669 58.3889 11.1669C58.339 11.1669 58.2392 11.2418 58.0895 11.3915C57.9398 11.5163 57.84 11.5911 57.79 11.6161C57.7651 11.641 57.7526 11.6785 57.7526 11.7284C57.7776 11.7783 57.79 11.8282 57.79 11.8781C57.79 11.9529 57.7277 12.0403 57.6029 12.1401C57.4781 12.2149 57.3908 12.2773 57.3409 12.3272C57.2411 12.4021 57.1163 12.452 56.9666 12.4769C56.8419 12.4769 56.7171 12.5268 56.5923 12.6266C56.4426 12.7264 56.3678 12.8013 56.3678 12.8512C56.3927 12.9011 56.3179 12.9884 56.1432 13.1132C55.9186 13.2879 55.6067 13.5499 55.2075 13.8992C54.8332 14.2485 54.5463 14.5604 54.3467 14.8349C53.8726 15.4088 53.4359 16.07 53.0367 16.8186C52.6624 17.5672 52.4752 18.1535 52.4752 18.5777C52.4752 18.9021 52.6125 19.0643 52.887 19.0643C52.9369 19.0643 52.9868 19.0643 53.0367 19.0643C53.0866 19.0393 53.1489 19.0144 53.2238 18.9894L54.1969 18.428L54.4215 18.3906V18.3532L54.5712 18.4654C54.5962 18.4405 54.5837 18.4031 54.5338 18.3532C54.5088 18.2783 54.5088 18.2409 54.5338 18.2409C54.5587 18.2409 54.5712 18.2533 54.5712 18.2783C54.5962 18.2783 54.6211 18.2783 54.6461 18.2783L54.7209 18.166C54.7209 18.166 54.7584 18.1785 54.8332 18.2034C54.933 18.2034 55.0079 18.1785 55.0578 18.1286C55.1326 18.1036 55.1451 18.0662 55.0952 18.0163C55.0703 17.9664 55.0328 17.929 54.9829 17.904L55.2449 17.6795C55.2699 17.6295 55.3697 17.5796 55.5444 17.5297C55.9685 17.2553 56.3179 16.9309 56.5923 16.5566C56.8918 16.1574 57.2286 15.7956 57.6029 15.4712H57.6403L58.0895 15.022L58.052 14.9098L58.5386 14.3483H58.6135C58.6384 14.2984 58.6883 14.2361 58.7632 14.1612C58.863 14.0863 58.9254 14.024 58.9503 13.9741C59.0002 13.9491 59.1125 13.8243 59.2872 13.5998C59.4868 13.3503 59.6739 13.1506 59.8486 13.0009C60.0482 12.8512 60.1605 12.7764 60.1855 12.7764C60.2104 12.7764 60.2229 12.7888 60.2229 12.8138C60.2229 12.8886 60.1855 13.0009 60.1106 13.1506C60.0607 13.3003 60.0108 13.4002 59.9609 13.4501C59.7862 13.7245 59.5616 14.0364 59.2872 14.3858C59.0127 14.7101 58.8505 14.9098 58.8006 14.9846C58.5012 15.309 58.1394 15.7457 57.7152 16.2946C57.291 16.8186 56.8294 17.3426 56.3303 17.8666C55.8313 18.3906 55.3323 18.8397 54.8332 19.214C54.3591 19.5633 53.91 19.738 53.4858 19.738C53.0866 19.738 52.6624 19.6132 52.2132 19.3637C51.7641 19.1142 51.5395 18.6401 51.5395 17.9414C51.5395 17.7169 51.5645 17.4674 51.6144 17.1929C51.6892 16.8935 51.8015 16.5816 51.9512 16.2572C51.9512 16.2572 51.9762 16.2322 52.0261 16.1823C52.076 16.1075 52.1134 16.0825 52.1384 16.1075C52.1883 16.0326 52.2008 15.9578 52.1758 15.8829C52.1758 15.7831 52.1758 15.7207 52.1758 15.6958L52.2507 15.6209C52.3006 15.3464 52.4877 15.0969 52.8121 14.8723C53.1365 14.6478 53.3111 14.4731 53.3361 14.3483C53.361 14.3234 53.3735 14.286 53.3735 14.2361L53.5232 13.7495V13.5998H53.6729L53.7852 13.4501L53.8227 13.3752C53.7728 13.3503 53.7852 13.3128 53.8601 13.2629C53.9599 13.1881 54.0098 13.1506 54.0098 13.1506C54.0347 13.1007 54.0597 13.0633 54.0847 13.0384C54.1346 13.0134 54.172 12.9884 54.1969 12.9635H54.4589C54.5088 12.8886 54.4839 12.8512 54.3841 12.8512C54.2843 12.8512 54.2344 12.8512 54.2344 12.8512C54.2344 12.8263 54.2344 12.8138 54.2344 12.8138C54.2593 12.7888 54.2718 12.7639 54.2718 12.7389L54.6835 12.4021C54.8083 12.3023 54.933 12.2149 55.0578 12.1401C55.1825 12.0652 55.2948 11.9779 55.3946 11.8781C55.4695 11.8781 55.482 11.9155 55.4321 11.9904C55.457 12.0403 55.482 12.0403 55.5069 11.9904C55.5568 11.9405 55.5818 11.9155 55.5818 11.9155L55.7689 11.8781V11.8406C55.7689 11.7907 55.7814 11.7159 55.8064 11.6161C55.8313 11.5163 55.8438 11.4539 55.8438 11.4289C56.3678 11.0297 56.9167 10.6804 57.4906 10.3809C58.0645 10.0566 58.6259 9.89438 59.1749 9.89438C59.8236 9.89438 60.41 10.1439 60.934 10.6429L61.1212 10.7552C61.1461 10.7552 61.1586 10.7428 61.1586 10.7178C61.2085 10.3685 61.4954 10.1065 62.0194 9.93181C62.5684 9.75714 63.055 9.66981 63.4791 9.66981C63.9283 9.66981 64.1528 9.73219 64.1528 9.85695C64.1528 9.90686 64.078 9.99419 63.9283 10.119C63.8534 10.1689 63.7287 10.2811 63.554 10.4558C63.3793 10.6305 63.2047 10.8426 63.03 11.0921C63.005 11.1669 62.9676 11.2418 62.9177 11.3167C62.8678 11.3915 62.8179 11.4664 62.768 11.5412C62.743 11.5911 62.7056 11.6535 62.6557 11.7284C62.6308 11.7783 62.5933 11.8282 62.5434 11.8781C62.1192 12.6017 61.7824 13.213 61.5329 13.7121C61.2833 14.2111 60.9839 14.8474 60.6346 15.6209C60.5847 15.7706 60.5597 15.8579 60.5597 15.8829C60.5597 16.0825 60.672 16.1823 60.8966 16.1823C61.0463 16.1823 61.196 16.1449 61.3457 16.07L61.72 15.9203C62.3189 15.3714 62.9427 14.9098 63.5914 14.5355C63.6164 14.5355 63.6288 14.5355 63.6288 14.5355C63.6538 14.5105 63.6788 14.4981 63.7037 14.4981C63.7786 14.4981 63.8285 14.548 63.8534 14.6478C63.8784 14.7226 63.8534 14.785 63.7786 14.8349C63.055 15.2341 62.3812 15.7457 61.7574 16.3695C61.7325 16.4194 61.7075 16.4693 61.6826 16.5192C61.6576 16.5691 61.6202 16.619 61.5703 16.6689C61.4954 16.7188 61.4206 16.8061 61.3457 16.9309C61.2709 17.0556 61.2334 17.1305 61.2334 17.1555C61.2085 17.2303 61.1711 17.2553 61.1212 17.2303C61.0962 17.2054 61.0214 17.2428 60.8966 17.3426C60.8716 17.3675 60.8467 17.4175 60.8217 17.4923C60.8217 17.5672 60.8093 17.6295 60.7843 17.6795C60.7344 17.7543 60.6845 17.8167 60.6346 17.8666C60.5847 17.8915 60.5597 17.9165 60.5597 17.9414C60.5348 18.0413 60.4849 18.1036 60.41 18.1286C60.3601 18.1286 60.3102 18.1535 60.2603 18.2034C60.2354 18.2034 60.2229 18.2159 60.2229 18.2409C60.2229 18.4654 60.1979 18.5653 60.148 18.5403C60.0981 18.5153 60.0482 18.5403 59.9983 18.6152C59.9484 18.715 59.886 18.7649 59.8112 18.7649C59.6615 18.8148 59.5991 18.8522 59.624 18.8772C59.6739 18.9021 59.7114 18.9271 59.7363 18.952C59.7862 18.952 59.7488 18.9894 59.624 19.0643C59.5741 19.0892 59.5242 19.1641 59.4743 19.2889C59.4244 19.3887 59.3745 19.4635 59.3246 19.5134C59.2497 19.5633 59.1749 19.6008 59.1 19.6257C59.0252 19.6507 58.9628 19.7006 58.9129 19.7754C58.6883 20 58.5012 20.1123 58.3515 20.1123ZM79.3136 22.6948C79.1389 22.6948 79.0516 22.5077 79.0516 22.1334C79.0516 21.8839 79.1015 21.572 79.2013 21.1977C79.3261 20.8484 79.4758 20.4367 79.6505 19.9626C79.8501 19.7879 79.9499 19.5633 79.9499 19.2889C79.9998 19.3138 80.0248 19.3138 80.0248 19.2889C80.0497 19.239 80.0622 19.214 80.0622 19.214C80.1121 19.1392 80.137 19.0643 80.137 18.9894C80.137 18.8896 80.1495 18.8023 80.1745 18.7274V18.6526C80.0747 18.4031 80.0248 18.191 80.0248 18.0163L79.9499 17.9789C79.9 17.8292 79.8626 17.667 79.8376 17.4923C79.8376 17.3176 79.8501 17.1555 79.875 17.0057C79.9 16.856 79.8875 16.7812 79.8376 16.7812C79.8127 16.7562 79.8002 16.7188 79.8002 16.6689C79.8002 16.619 79.8002 16.5816 79.8002 16.5566C79.8251 16.5067 79.8501 16.4318 79.875 16.332C79.9 16.2821 79.9374 16.1948 79.9873 16.07C80.0622 15.9203 80.0996 15.833 80.0996 15.808C80.0996 15.7581 80.0871 15.7207 80.0622 15.6958C80.0372 15.6459 80.0248 15.6084 80.0248 15.5835L80.137 15.4338V15.1718C80.162 15.1219 80.1745 15.0595 80.1745 14.9846C80.1994 14.9347 80.2368 14.8973 80.2867 14.8723C80.3367 14.8224 80.3741 14.785 80.399 14.76C80.4489 14.7101 80.4864 14.6478 80.5113 14.5729C80.5612 14.4731 80.5987 14.3982 80.6236 14.3483C80.6486 14.2984 80.6735 14.261 80.6985 14.2361C80.7484 14.1861 80.7858 14.1238 80.8107 14.0489C80.8606 13.9741 80.8981 13.9117 80.923 13.8618C80.948 13.7869 80.9854 13.7121 81.0353 13.6372L81.2973 13.4126C81.3971 13.3128 81.4969 13.2629 81.5967 13.2629C81.6965 13.2629 81.7589 13.3627 81.7839 13.5623L81.7464 13.7495L81.1476 14.3858C81.0977 14.4357 81.0727 14.4981 81.0727 14.5729C81.0478 14.5979 81.0228 14.6228 80.9979 14.6478C80.9979 14.6727 80.9854 14.7101 80.9605 14.76C80.9605 14.81 80.923 14.8723 80.8482 14.9472L80.7359 15.284C80.686 15.284 80.661 15.309 80.661 15.3589C80.6361 15.3839 80.6111 15.5336 80.5862 15.808C80.5862 16.0576 80.5862 16.2073 80.5862 16.2572H80.6985C80.6985 16.2821 80.6985 16.3196 80.6985 16.3695C80.7234 16.3944 80.7234 16.4318 80.6985 16.4817V16.7063C80.6985 16.7562 80.686 16.8061 80.661 16.856C80.661 16.856 80.6486 16.8685 80.6236 16.8935C80.6236 16.8935 80.6236 16.9059 80.6236 16.9309C80.6236 16.9558 80.6361 16.9933 80.661 17.0432C80.686 17.0681 80.6985 17.1056 80.6985 17.1555C80.6985 17.1804 80.686 17.2054 80.661 17.2303C80.661 17.2303 80.661 17.2428 80.661 17.2677C80.661 17.2927 80.6735 17.3176 80.6985 17.3426C80.7234 17.3426 80.7359 17.3551 80.7359 17.38V17.4175C80.9355 17.0432 81.1226 16.6564 81.2973 16.2572C81.4969 15.8579 81.6965 15.4587 81.8962 15.0595C81.9461 14.9597 81.996 14.9347 82.0459 14.9846C82.1207 15.0096 82.1706 14.9971 82.1956 14.9472C82.2205 14.9222 82.233 14.8599 82.233 14.76C82.233 14.6852 82.2205 14.6103 82.1956 14.5355C82.1956 14.4606 82.233 14.3733 82.3079 14.2735L82.8319 13.3378C83.5555 12.0403 84.2791 10.7927 85.0027 9.59495C85.7513 8.39725 86.4499 7.47402 87.0987 6.82527L87.211 6.75041L87.3233 6.56327C87.3233 6.56327 87.3482 6.55079 87.3981 6.52584C87.448 6.50089 87.4854 6.51336 87.5104 6.56327C87.5104 6.58822 87.4854 6.63813 87.4355 6.71298C87.4106 6.78784 87.3981 6.83774 87.3981 6.86269C87.473 6.98746 87.5603 6.99993 87.6601 6.90012C87.6851 6.85022 87.6851 6.73793 87.6601 6.56327C87.6352 6.3886 87.6352 6.30127 87.6601 6.30127C87.71 6.27632 87.735 6.27632 87.735 6.30127C87.7599 6.32622 87.7849 6.3387 87.8098 6.3387C87.8597 6.3387 87.8847 6.30127 87.8847 6.22641C87.8847 6.15156 87.8972 6.10165 87.9221 6.0767C88.1966 5.97689 88.4461 5.92699 88.6707 5.92699C88.7954 5.92699 88.9701 5.98937 89.1947 6.11413C89.4442 6.23889 89.5689 6.41356 89.5689 6.63813C89.5689 6.76289 89.5066 6.9126 89.3818 7.08726C89.3569 7.11222 89.3319 7.16212 89.3069 7.23698C89.282 7.28688 89.2446 7.33679 89.1947 7.38669C89.1697 7.41164 89.1448 7.42412 89.1198 7.42412C89.1198 7.39917 89.0949 7.39917 89.045 7.42412C89.02 7.44907 88.9826 7.46155 88.9327 7.46155C88.9077 7.43659 88.8703 7.42412 88.8204 7.42412C88.7705 7.42412 88.758 7.46155 88.783 7.5364C88.8329 7.61126 88.8453 7.66116 88.8204 7.68612C88.7954 7.71107 88.7705 7.71107 88.7455 7.68612C88.7206 7.66116 88.6831 7.67364 88.6332 7.72354C88.6083 7.7485 88.6208 7.77345 88.6707 7.7984C88.7455 7.7984 88.758 7.82335 88.7081 7.87326C88.5584 8.02297 88.3712 8.18516 88.1467 8.35982C87.9471 8.50954 87.7474 8.65925 87.5478 8.80896C87.5229 8.83391 87.4979 8.83391 87.473 8.80896C87.448 8.75906 87.4231 8.74658 87.3981 8.77153L87.1361 9.14582C86.8866 9.39534 86.6371 9.65734 86.3875 9.93181C86.138 10.2063 85.876 10.5182 85.6016 10.8675C85.5267 11.0172 85.4394 11.1545 85.3396 11.2792C85.2397 11.404 85.1025 11.4539 84.9278 11.4289C84.9278 11.4539 84.9528 11.4913 85.0027 11.5412C85.0526 11.5662 85.0526 11.6161 85.0027 11.6909C84.5785 12.2898 84.1543 12.9136 83.7301 13.5623C83.306 14.2111 82.9067 14.8848 82.5324 15.5835C82.3578 15.8829 82.1457 16.2697 81.8962 16.7437L81.5593 17.4175C81.5344 17.4923 81.4969 17.5297 81.447 17.5297C81.4221 17.5048 81.3846 17.4923 81.3347 17.4923C81.4096 17.642 81.4221 17.8042 81.3722 17.9789C81.3971 17.9789 81.4096 17.9914 81.4096 18.0163C81.8837 18.3407 82.2205 18.5653 82.4202 18.69C82.6447 18.8148 83.019 18.9395 83.543 19.0643C83.7426 19.1142 83.9422 19.1766 84.1419 19.2514C84.3415 19.3013 84.5536 19.3263 84.7781 19.3263C84.8031 19.3263 84.8031 19.3388 84.7781 19.3637C84.7781 19.3887 84.7906 19.4011 84.8156 19.4011C84.9154 19.4011 85.0152 19.4136 85.115 19.4386C85.2148 19.4386 85.3146 19.4386 85.4144 19.4386C85.4394 19.4386 85.4518 19.4386 85.4518 19.4386C85.4768 19.4136 85.5017 19.4011 85.5267 19.4011C85.5766 19.4011 85.6515 19.4261 85.7513 19.476C85.9259 19.476 86.1131 19.476 86.3127 19.476C86.5373 19.476 86.7369 19.4635 86.9115 19.4386C87.1112 19.4136 87.2983 19.3887 87.473 19.3637C87.6726 19.3138 87.8597 19.2764 88.0344 19.2514C88.3837 19.2265 88.7206 19.1641 89.045 19.0643C89.3943 18.9395 89.7311 18.8272 90.0555 18.7274C90.4298 18.6027 90.829 18.4654 91.2532 18.3157C91.7024 18.1411 92.164 17.9414 92.6381 17.7169C92.688 17.6919 92.7129 17.7543 92.7129 17.904C92.7379 18.0288 92.7753 18.0787 92.8252 18.0537C92.8751 18.0288 92.9375 17.929 93.0123 17.7543C93.1122 17.5796 93.1745 17.4798 93.1995 17.4549L93.5363 17.0057L93.8358 16.6689C93.8857 16.594 93.9356 16.4942 93.9855 16.3695C94.0354 16.2447 94.0728 16.1449 94.0978 16.07C94.1726 15.8704 94.235 15.6583 94.2849 15.4338C94.3348 15.2092 94.3598 14.9721 94.3598 14.7226C94.3598 14.5979 94.4221 14.5355 94.5469 14.5355C94.6717 14.5355 94.734 14.5979 94.734 14.7226C94.734 14.8474 94.734 14.9846 94.734 15.1343C94.734 15.284 94.7091 15.4213 94.6592 15.546C94.6592 15.571 94.6342 15.5835 94.5843 15.5835C94.5594 15.5585 94.5469 15.5585 94.5469 15.5835C94.5219 15.7581 94.497 15.9453 94.472 16.1449C94.4471 16.3196 94.3847 16.4942 94.2849 16.6689L94.0603 17.0432C94.5843 16.7687 95.0834 16.4817 95.5575 16.1823C96.0565 15.8579 96.4807 15.4961 96.83 15.0969L97.1669 14.7226C97.1918 14.6727 97.2293 14.6353 97.2792 14.6103C97.3291 14.5854 97.3665 14.6228 97.3914 14.7226C97.3166 14.7975 97.3041 14.8973 97.354 15.022C97.4788 14.9971 97.5536 14.8848 97.5786 14.6852C97.6035 14.4606 97.641 14.261 97.6909 14.0863C97.9154 13.8119 98.14 13.5124 98.3646 13.1881C98.3895 13.1631 98.427 13.1506 98.4769 13.1506C98.5767 13.1506 98.664 13.1631 98.7389 13.1881C98.8137 13.213 98.8886 13.1756 98.9634 13.0758C98.9135 12.951 98.8636 12.8637 98.8137 12.8138C98.7638 12.7389 98.7763 12.6391 98.8511 12.5144L98.9634 12.3272C99.0882 12.1026 99.2254 11.9405 99.3751 11.8406C99.5249 11.7408 99.6247 11.5287 99.6746 11.2044C100.149 10.356 100.386 9.43277 100.386 8.43468C100.386 7.28688 100.024 6.22641 99.3003 5.25328C98.6016 4.2552 97.5287 3.63139 96.0815 3.38187C96.0316 3.38187 95.8818 3.34444 95.6323 3.26959C95.4077 3.16978 95.2705 3.11987 95.2206 3.11987C95.1707 3.11987 95.1208 3.11987 95.0709 3.11987C95.021 3.09492 94.9711 3.08244 94.9212 3.08244C94.8214 3.08244 94.7465 3.09492 94.6966 3.11987C94.6467 3.11987 94.5344 3.09492 94.3598 3.04502C94.1352 2.92026 93.8482 2.8454 93.4989 2.82045C93.1745 2.77054 92.9874 2.73311 92.9375 2.70816L92.2638 2.85787C92.139 2.85787 92.0143 2.85787 91.8895 2.85787C91.7897 2.83292 91.6899 2.82045 91.5901 2.82045C91.0162 2.82045 90.5421 2.87035 90.1678 2.97016C89.8185 3.04502 89.5066 3.09492 89.2321 3.11987L87.6975 3.26959C87.5478 3.19473 87.4106 3.21968 87.2858 3.34444H87.2484C87.0737 3.34444 86.8991 3.36939 86.7244 3.4193C86.5747 3.44425 86.4125 3.48168 86.2378 3.53158C86.138 3.55654 86.0257 3.56901 85.901 3.56901C85.8012 3.56901 85.6889 3.59396 85.5641 3.64387V3.6813C85.4643 3.70625 85.352 3.7312 85.2273 3.75615C85.1275 3.75615 85.0152 3.7811 84.8904 3.83101H84.853C84.7532 3.88091 84.6534 3.93082 84.5536 3.98072C84.4787 4.03063 84.3789 4.0431 84.2541 4.01815C84.1543 4.0431 84.042 4.06805 83.9173 4.09301C83.8175 4.11796 83.7052 4.15539 83.5804 4.20529H83.5056C83.4307 4.20529 83.3559 4.13043 83.281 3.98072C83.2061 3.83101 83.1687 3.7312 83.1687 3.6813C83.1438 3.83101 83.1063 3.9932 83.0564 4.16786C83.0315 4.34253 82.9442 4.42986 82.7944 4.42986V4.46729C82.6198 4.49224 82.4576 4.54214 82.3079 4.617C82.1582 4.69186 81.996 4.75424 81.8213 4.80414C81.7215 4.82909 81.6217 4.84157 81.5219 4.84157C81.4221 4.81662 81.3098 4.80414 81.185 4.80414C81.1351 4.80414 81.0852 4.81662 81.0353 4.84157C80.9854 4.84157 80.9355 4.85405 80.8856 4.879C80.8107 4.90395 80.7608 4.95386 80.7359 5.02871C80.7359 5.10357 80.7109 5.16595 80.661 5.21585C80.5612 5.31566 80.4365 5.39052 80.2867 5.44042C80.137 5.49033 80.0123 5.54023 79.9125 5.59013C79.8626 5.61509 79.7877 5.59014 79.6879 5.51528C79.613 5.44042 79.5507 5.42795 79.5008 5.47785C79.4758 5.5028 79.4509 5.56518 79.4259 5.66499C79.4259 5.7648 79.4009 5.82718 79.351 5.85213H79.3136L78.4153 6.26384C78.2906 6.31375 78.1409 6.3886 77.9662 6.48841C77.7915 6.58822 77.6418 6.6506 77.5171 6.67555C77.4921 6.67555 77.4796 6.62565 77.4796 6.52584C77.4796 6.42603 77.4547 6.40108 77.4048 6.45098C77.28 6.50089 77.1428 6.63813 76.9931 6.86269C76.8683 7.06231 76.7435 7.19955 76.6188 7.27441C76.494 7.37421 76.3693 7.42412 76.2445 7.42412C76.1197 7.42412 76.0075 7.47402 75.9076 7.57383C75.8328 7.62374 75.7579 7.73602 75.6831 7.91068C75.6332 8.0604 75.5708 8.17268 75.4959 8.24754L74.9719 8.95867C74.922 9.00858 74.8721 9.05848 74.8222 9.10839C74.7723 9.15829 74.7474 9.22067 74.7474 9.29553C74.5977 9.54505 74.5228 9.832 74.5228 10.1564C74.5228 10.7053 74.7099 11.1046 75.0842 11.3541C75.4835 11.5787 75.9201 11.7533 76.3942 11.8781H76.4316C76.6063 12.0028 76.7685 12.0527 76.9182 12.0278C77.018 11.9779 77.1053 11.9529 77.1802 11.9529C77.28 11.9529 77.3673 12.0028 77.4422 12.1026L77.9662 12.2149C78.2407 12.2898 78.3779 12.3646 78.3779 12.4395C78.3779 12.4894 78.3155 12.5393 78.1908 12.5892C78.091 12.6142 77.9787 12.6266 77.8539 12.6266C77.4297 12.6266 76.9057 12.5393 76.2819 12.3646C75.6831 12.19 75.1466 11.9155 74.6725 11.5412C74.1984 11.142 73.924 10.6554 73.8491 10.0815C73.8491 10.0566 73.8117 9.99419 73.7368 9.89438C73.6869 9.79457 73.6495 9.70724 73.6245 9.63238C73.5996 9.50762 73.5746 9.39534 73.5497 9.29553C73.5497 9.17077 73.5497 9.05848 73.5497 8.95867C73.5497 8.16021 73.8616 7.42412 74.4854 6.75041C74.6101 6.62565 74.7224 6.53832 74.8222 6.48841C74.922 6.43851 75.0468 6.36365 75.1965 6.26384C75.3213 6.16403 75.3837 6.08918 75.3837 6.03927C75.3837 5.96442 75.4585 5.87708 75.6082 5.77728C75.8078 5.62756 76.0698 5.47785 76.3942 5.32814C76.7186 5.15347 76.9806 5.01624 77.1802 4.91643V4.879H77.2551C77.3549 4.879 77.4547 4.82909 77.5545 4.72929C78.0036 4.50472 78.4777 4.3051 78.9768 4.13043C79.5008 3.93082 80.0248 3.74368 80.5487 3.56901C80.6985 3.49415 80.8357 3.45673 80.9605 3.45673C81.0852 3.45673 81.185 3.49415 81.2599 3.56901C81.2599 3.51911 81.2599 3.48168 81.2599 3.45673C81.2599 3.40682 81.2724 3.36939 81.2973 3.34444V3.30701C81.8712 3.13235 82.4451 2.95768 83.019 2.78302C83.5929 2.5834 84.1543 2.48359 84.7033 2.48359H84.7407C84.8904 2.48359 85.0027 2.45864 85.0776 2.40874L85.3021 2.37131H85.3396C85.4893 2.42121 85.6265 2.39626 85.7513 2.29645C86.3751 2.17169 86.9739 2.09683 87.5478 2.07188C88.1217 2.04693 88.6083 2.02198 89.0075 1.99703C89.0824 2.02198 89.1572 2.03445 89.2321 2.03445C89.3069 2.0095 89.3693 1.99703 89.4192 1.99703L89.7935 1.9596C89.8684 1.9596 89.9432 1.97207 90.0181 1.99703C90.1179 1.99703 90.2052 1.98455 90.2801 1.9596L92.3761 1.92217H92.4135C92.4883 1.92217 92.5507 1.9596 92.6006 2.03445C92.6755 2.08436 92.7503 2.05941 92.8252 1.9596C93.0248 1.9596 93.3242 1.99703 93.7235 2.07188C94.1477 2.14674 94.5719 2.2216 94.996 2.29645C95.4202 2.34636 95.7321 2.39626 95.9317 2.44616C96.306 2.52102 96.83 2.69569 97.5037 2.97016C98.2024 3.21968 98.901 3.60644 99.5997 4.13043C100.298 4.62948 100.86 5.30319 101.284 6.15156C101.733 6.97498 101.895 8.01049 101.771 9.2581C101.746 9.70724 101.646 10.1314 101.471 10.5307C101.296 10.9299 101.109 11.3416 100.91 11.7658L100.535 12.5892C100.51 12.6142 100.473 12.6516 100.423 12.7015C100.373 12.7264 100.323 12.7639 100.273 12.8138C100.248 12.8886 100.211 12.951 100.161 13.0009C100.111 13.0259 100.061 13.0758 100.011 13.1506C99.9116 13.3003 99.7993 13.4501 99.6746 13.5998C99.5498 13.7245 99.425 13.8742 99.3003 14.0489L99.2254 14.1612C98.8761 14.7101 98.4394 15.2092 97.9154 15.6583C97.3914 16.0825 96.8675 16.4693 96.3435 16.8186V16.856C96.2936 16.881 96.2312 16.9184 96.1563 16.9683C96.1064 16.9933 96.0565 17.0307 96.0066 17.0806L95.9692 17.118H95.9317C95.8818 17.143 95.8195 17.1679 95.7446 17.1929C95.6697 17.2178 95.6074 17.2802 95.5575 17.38C95.4577 17.4549 95.3578 17.4923 95.258 17.4923C94.9337 17.667 94.6342 17.8167 94.3598 17.9414C94.0853 18.0413 93.8482 18.1411 93.6486 18.2409C93.6486 18.2908 93.6112 18.3656 93.5363 18.4654C93.4615 18.5653 93.3991 18.6401 93.3492 18.69C92.925 19.0393 92.6381 19.3263 92.4883 19.5509C92.3386 19.7754 92.1515 19.9501 91.9269 20.0749C91.902 20.0998 91.8645 20.1123 91.8146 20.1123C91.7148 20.1123 91.64 20.1497 91.5901 20.2246C91.5402 20.2994 91.4903 20.3743 91.4404 20.4491C91.3156 20.5739 91.0661 20.6987 90.6918 20.8234C90.3425 20.9482 90.0805 21.0729 89.9058 21.1977C89.8309 21.2227 89.7436 21.2476 89.6438 21.2726C89.5689 21.3225 89.5315 21.3474 89.5315 21.3474H89.3444C89.3194 21.3474 89.2695 21.3724 89.1947 21.4223C89.1198 21.4971 89.0574 21.547 89.0075 21.572C88.9576 21.5969 88.9077 21.6094 88.8578 21.6094C88.8079 21.6094 88.7705 21.6344 88.7455 21.6843C88.6208 21.6843 88.4835 21.7092 88.3338 21.7591C88.3089 21.7591 88.1841 21.7591 87.9595 21.7591C87.735 21.7841 87.5977 21.809 87.5478 21.834C87.5229 21.8589 87.4355 21.8964 87.2858 21.9463C87.1361 21.9962 87.0363 22.0211 86.9864 22.0211C86.9614 22.0211 86.9365 22.0086 86.9115 21.9837C86.8866 21.9837 86.8492 21.9962 86.7993 22.0211C86.7743 22.071 86.7369 22.096 86.687 22.096C86.662 22.096 86.6121 22.0835 86.5373 22.0586C86.4874 22.0586 86.4375 22.0586 86.3875 22.0586C86.3626 22.0336 86.3127 22.0461 86.2378 22.096C86.1879 22.1459 86.138 22.1708 86.0881 22.1708C86.0632 22.1708 86.0382 22.1584 86.0133 22.1334C86.0133 22.1334 86.0008 22.1334 85.9758 22.1334C85.9259 22.1334 85.876 22.1459 85.8261 22.1708C85.7762 22.1958 85.7263 22.2083 85.6764 22.2083C85.5017 22.2083 85.3396 22.1958 85.1898 22.1708C85.0401 22.1459 84.8904 22.1334 84.7407 22.1334C84.7158 22.1334 84.6409 22.096 84.5161 22.0211C84.4163 21.9463 84.3539 21.9088 84.329 21.9088C84.1543 21.9088 83.9797 21.8964 83.805 21.8714C83.6553 21.8714 83.5056 21.8589 83.3559 21.834C83.3309 21.834 83.306 21.809 83.281 21.7591C83.281 21.7342 83.2561 21.7217 83.2061 21.7217H83.1313C83.1063 21.7217 83.044 21.6967 82.9442 21.6468C82.8693 21.5969 82.8194 21.5595 82.7944 21.5346L82.757 21.4971C82.6572 21.4722 82.5948 21.4347 82.5699 21.3848C82.5699 21.3349 82.5449 21.31 82.495 21.31C82.4701 21.31 82.4576 21.31 82.4576 21.31C82.4576 21.3349 82.4451 21.3474 82.4202 21.3474C82.3703 21.3474 82.3453 21.3225 82.3453 21.2726C82.2704 21.2227 82.1457 21.1603 81.971 21.0854C81.8213 21.0106 81.7215 20.9232 81.6716 20.8234C81.5718 20.7985 81.5094 20.7735 81.4845 20.7486C81.4845 20.7236 81.4595 20.6737 81.4096 20.5989L81.2599 20.524L80.8856 20.1871C80.8856 20.1123 80.8731 20.0749 80.8482 20.0749L80.7359 20C80.7359 19.9002 80.6985 19.8503 80.6236 19.8503C80.5737 19.7006 80.5487 19.6257 80.5487 19.6257C80.3242 20.1248 80.1246 20.6113 79.9499 21.0854C79.8002 21.5595 79.6629 21.9962 79.5382 22.3954C79.4883 22.595 79.4134 22.6948 79.3136 22.6948ZM85.8636 21.572C85.9135 21.572 85.9509 21.5595 85.9758 21.5346C86.0257 21.5096 86.0632 21.4847 86.0881 21.4597H86.2378C86.4125 21.3599 86.4998 21.3599 86.4998 21.4597C86.4998 21.5595 86.5622 21.5595 86.687 21.4597H86.8741C86.8991 21.3848 86.9365 21.3474 86.9864 21.3474C87.0613 21.3474 87.1112 21.3349 87.1361 21.31C87.186 21.31 87.211 21.285 87.211 21.2351C87.2359 21.2102 87.2858 21.1977 87.3607 21.1977C87.3856 21.1977 87.4231 21.2227 87.473 21.2726C87.5728 21.2726 87.7724 21.2227 88.0718 21.1228C88.3962 21.023 88.5709 20.9731 88.5958 20.9731C88.6208 20.9981 88.6582 20.9731 88.7081 20.8983C88.783 20.8234 88.8329 20.7985 88.8578 20.8234C88.8578 20.7985 88.8952 20.7735 88.9701 20.7486C89.045 20.7486 89.0949 20.7361 89.1198 20.7111C89.2695 20.6363 89.3943 20.5989 89.4941 20.5989C89.519 20.5739 89.5814 20.524 89.6812 20.4491C89.806 20.3992 89.8684 20.3618 89.8684 20.3369C89.9183 20.2869 89.9931 20.2495 90.0929 20.2246C90.1928 20.1996 90.2551 20.1747 90.2801 20.1497C90.3549 20.1497 90.6045 20.025 91.0286 19.7754C91.4778 19.501 91.8895 19.1766 92.2638 18.8023C91.8396 18.952 91.4279 19.0768 91.0286 19.1766C90.6544 19.2514 90.4547 19.2889 90.4298 19.2889C90.3799 19.3388 90.3425 19.3637 90.3175 19.3637C90.2177 19.3138 90.1678 19.2889 90.1678 19.2889L90.1304 19.3263C90.1054 19.3263 90.0805 19.3388 90.0555 19.3637C90.0306 19.3887 89.9807 19.4011 89.9058 19.4011C89.8808 19.3762 89.806 19.4011 89.6812 19.476C89.5814 19.5259 89.519 19.5509 89.4941 19.5509C89.4691 19.5509 89.4317 19.5633 89.3818 19.5883C89.3569 19.5883 89.3194 19.5758 89.2695 19.5509C89.1697 19.6507 88.9077 19.7255 88.4835 19.7754C88.0843 19.8004 87.8223 19.8129 87.6975 19.8129H87.6601C87.6352 19.7879 87.5977 19.7879 87.5478 19.8129C87.5229 19.8129 87.4854 19.8129 87.4355 19.8129C87.4355 19.8378 87.4231 19.8628 87.3981 19.8877H87.1735C87.0737 19.8877 86.9739 19.9002 86.8741 19.9251C86.7993 19.9501 86.7119 19.9626 86.6121 19.9626L86.5747 19.9251C86.5497 19.9251 86.5123 19.9376 86.4624 19.9626C86.4125 19.9875 86.3751 20 86.3501 20C86.3252 20 86.3002 19.9875 86.2753 19.9626C86.2753 19.9127 86.2503 19.8877 86.2004 19.8877C86.1755 19.8877 86.138 19.9127 86.0881 19.9626C86.0632 19.9875 86.0382 19.9875 86.0133 19.9626H85.8636C85.7887 19.9626 85.7513 19.9626 85.7513 19.9626C85.7263 19.9626 85.7014 19.975 85.6764 20C85.6764 20 85.6639 20 85.639 20C85.639 20 85.614 19.975 85.5641 19.9251C85.5392 19.9251 85.4893 19.9501 85.4144 20C85.3645 20.025 85.3146 20.025 85.2647 20H85.1898C85.1399 19.9501 85.115 19.9251 85.115 19.9251C85.09 19.9251 85.0776 19.9376 85.0776 19.9626H84.7407C84.591 19.9626 84.4413 19.9127 84.2916 19.8129C84.1419 19.7131 84.0046 19.6631 83.8799 19.6631C83.8549 19.6631 83.83 19.6756 83.805 19.7006C83.805 19.7006 83.7925 19.7006 83.7676 19.7006C83.7426 19.7006 83.7177 19.7006 83.6927 19.7006C83.6927 19.6756 83.6802 19.6631 83.6553 19.6631C83.6553 19.6631 83.6428 19.6631 83.6179 19.6631C83.6179 19.6631 83.6054 19.6756 83.5804 19.7006C83.5804 19.6756 83.568 19.6631 83.543 19.6631C83.543 19.6382 83.543 19.6257 83.543 19.6257L83.2061 19.5509C83.2061 19.476 83.1812 19.4386 83.1313 19.4386C83.1063 19.3637 82.9442 19.2889 82.6447 19.214C82.3453 19.1392 82.1706 19.0892 82.1207 19.0643C82.0958 19.0643 82.0459 19.0393 81.971 18.9894C81.9211 18.9395 81.8962 18.9271 81.8962 18.952H81.8587C81.7839 18.952 81.6841 18.9021 81.5593 18.8023C81.4595 18.6775 81.3597 18.6027 81.2599 18.5777C81.185 18.5029 81.1476 18.428 81.1476 18.3532H81.1102L81.0727 18.3906L80.9979 18.6152C80.9979 18.6401 81.0104 18.69 81.0353 18.7649C81.0603 18.8397 81.0603 18.9021 81.0353 18.952C81.0852 19.0019 81.1102 19.0643 81.1102 19.1392C81.1102 19.1891 81.1351 19.2265 81.185 19.2514C81.21 19.3263 81.2349 19.4011 81.2599 19.476C81.3098 19.5509 81.3472 19.6257 81.3722 19.7006C81.3722 19.7255 81.4345 19.7754 81.5593 19.8503C81.6841 19.9002 81.7464 19.9501 81.7464 20C81.7714 20.025 81.7964 20.0499 81.8213 20.0749C81.8712 20.0998 81.8962 20.1372 81.8962 20.1871C81.9211 20.2121 81.9461 20.2495 81.971 20.2994C81.996 20.3493 82.0084 20.3992 82.0084 20.4491C82.0584 20.4491 82.0958 20.4616 82.1207 20.4866C82.1457 20.5365 82.2081 20.6113 82.3079 20.7111C82.4077 20.8359 82.4825 20.9108 82.5324 20.9357C82.5574 20.9357 82.5699 20.9232 82.5699 20.8983C82.5699 20.8983 82.5823 20.8983 82.6073 20.8983C82.6572 20.9232 82.7196 20.9731 82.7944 21.048C82.8693 21.1478 82.9192 21.1977 82.9442 21.1977C82.9941 21.1977 83.019 21.1977 83.019 21.1977C83.2186 21.2227 83.4182 21.2476 83.6179 21.2726C83.8175 21.3225 84.0171 21.3599 84.2167 21.3848C84.2417 21.3848 84.2791 21.3973 84.329 21.4223C84.3789 21.4722 84.4413 21.4971 84.5161 21.4971C84.7158 21.5221 84.9528 21.5346 85.2273 21.5346C85.5267 21.5346 85.7263 21.5346 85.8261 21.5346L85.8636 21.572ZM103.348 20.0749C102.724 20.0749 102.175 19.9002 101.701 19.5509C101.227 19.2015 100.99 18.6027 100.99 17.7543C100.99 17.4299 101.027 17.1056 101.102 16.7812C101.177 16.4318 101.264 16.095 101.364 15.7706C101.414 15.4462 101.489 15.1593 101.588 14.9098C101.613 14.81 101.626 14.76 101.626 14.76C101.651 14.7351 101.713 14.6977 101.813 14.6478L102.112 14.1986V14.0489C102.087 14.0489 102.075 14.0489 102.075 14.0489C102.075 14.024 102.075 14.0115 102.075 14.0115C102.075 13.9366 102.137 13.8493 102.262 13.7495C102.387 13.6497 102.449 13.5998 102.449 13.5998C102.474 13.475 102.512 13.4126 102.562 13.4126C102.611 13.4126 102.674 13.3752 102.749 13.3003H103.16V13.2255C103.16 13.1007 103.098 13.0508 102.973 13.0758C102.873 13.0758 102.824 13.0633 102.824 13.0384C102.824 13.0134 102.861 12.9635 102.936 12.8886C103.036 12.7888 103.098 12.7264 103.123 12.7015C103.198 12.6017 103.26 12.5144 103.31 12.4395C103.36 12.3397 103.435 12.2648 103.535 12.2149C103.984 11.666 104.258 11.3167 104.358 11.1669C104.483 11.0172 104.608 10.9049 104.732 10.8301C104.782 10.8301 104.82 10.855 104.845 10.9049C104.895 10.9299 104.895 10.9673 104.845 11.0172C104.895 11.0921 104.932 11.1046 104.957 11.0547C105.007 11.0048 105.032 10.9798 105.032 10.9798L105.181 10.9049C105.132 10.855 105.107 10.7927 105.107 10.7178C105.107 10.593 105.132 10.4932 105.181 10.4184C105.231 10.3186 105.319 10.2188 105.443 10.119C105.593 10.0191 105.668 9.95676 105.668 9.93181C105.818 9.8819 105.93 9.832 106.005 9.7821C106.105 9.73219 106.205 9.70724 106.304 9.70724C106.479 9.70724 106.654 9.76962 106.828 9.89438C107.302 10.1439 107.702 10.3934 108.026 10.6429C108.35 10.8925 108.513 11.2418 108.513 11.6909C108.513 12.165 108.313 12.5767 107.914 12.9261C107.539 13.2504 107.078 13.5249 106.529 13.7495C105.98 13.9741 105.431 14.1612 104.882 14.3109C104.358 14.4357 103.946 14.5355 103.647 14.6103C103.472 14.6353 103.385 14.7101 103.385 14.8349C103.41 14.9347 103.397 15.047 103.348 15.1718L103.086 15.5835L102.861 16.1075L102.674 16.4443C102.499 16.594 102.437 16.7063 102.487 16.7812C102.537 16.856 102.624 16.8436 102.749 16.7437C102.774 16.7687 102.786 16.8061 102.786 16.856C102.786 16.9558 102.761 17.0806 102.711 17.2303C102.661 17.3551 102.624 17.4549 102.599 17.5297C102.574 17.6295 102.574 17.6795 102.599 17.6795C102.649 17.6545 102.674 17.7044 102.674 17.8292L102.711 18.3532C102.861 18.8272 103.198 19.1017 103.722 19.1766C103.772 19.1766 103.822 19.1891 103.871 19.214C103.946 19.214 104.009 19.214 104.059 19.214C104.508 19.214 104.745 19.1766 104.77 19.1017C104.82 19.0269 104.882 18.977 104.957 18.952C105.181 18.9021 105.369 18.8522 105.518 18.8023C105.693 18.7524 105.868 18.6775 106.042 18.5777C106.342 18.453 106.629 18.2908 106.903 18.0912C107.178 17.8915 107.465 17.6919 107.764 17.4923L108.138 17.2303C108.163 17.1804 108.163 17.143 108.138 17.118C108.113 17.0931 108.113 17.0681 108.138 17.0432C108.188 17.0182 108.226 17.0182 108.251 17.0432C108.301 17.0432 108.338 17.0307 108.363 17.0057C108.413 16.9808 108.463 16.9434 108.513 16.8935C108.563 16.8186 108.612 16.7562 108.662 16.7063C108.712 16.6564 108.737 16.6065 108.737 16.5566C108.762 16.5067 108.8 16.4568 108.849 16.4069C109.049 16.2073 109.249 15.9952 109.448 15.7706C109.673 15.546 109.86 15.3464 110.01 15.1718C110.184 14.9222 110.322 14.7975 110.421 14.7975C110.471 14.7975 110.496 14.8224 110.496 14.8723C110.496 14.9971 110.409 15.1842 110.234 15.4338C109.81 16.0576 109.324 16.6689 108.775 17.2677C108.226 17.8416 107.627 18.3656 106.978 18.8397C106.504 19.1641 105.943 19.4511 105.294 19.7006C104.645 19.9501 103.996 20.0749 103.348 20.0749ZM103.909 14.0489C104.283 14.024 104.77 13.9242 105.369 13.7495C105.967 13.5499 106.467 13.2879 106.866 12.9635C107.29 12.6142 107.502 12.2274 107.502 11.8032C107.502 11.404 107.29 11.0172 106.866 10.6429C106.516 10.8925 106.13 11.2543 105.705 11.7284C105.306 12.1775 104.944 12.6266 104.62 13.0758C104.296 13.5 104.059 13.8243 103.909 14.0489ZM112.805 20.1497C112.78 20.1497 112.742 20.1248 112.693 20.0749C112.643 20.0499 112.605 20.0374 112.58 20.0374C112.48 20.0624 112.393 20.0749 112.318 20.0749C112.243 20.0749 112.169 20.0749 112.094 20.0749C112.069 20.0749 112.044 20.0624 112.019 20.0374C112.019 20.0125 112.006 20 111.981 20C111.956 20 111.944 20 111.944 20C111.969 20.025 111.969 20.0374 111.944 20.0374C111.944 20.0374 111.919 20.025 111.869 20C111.819 19.975 111.782 19.9626 111.757 19.9626L111.719 19.9251C111.67 19.9251 111.632 19.9127 111.607 19.8877C111.607 19.8628 111.595 19.8503 111.57 19.8503L111.532 19.8877L111.495 19.8503C111.445 19.8253 111.37 19.8004 111.27 19.7754C111.195 19.7255 111.133 19.6881 111.083 19.6631C111.033 19.6631 110.971 19.6257 110.896 19.5509H110.821C110.771 19.476 110.684 19.4261 110.559 19.4011C110.559 19.3762 110.547 19.3512 110.522 19.3263H110.484C110.434 19.2514 110.397 19.2265 110.372 19.2514C110.347 19.2015 110.31 19.1641 110.26 19.1392C110.235 19.0892 110.197 19.0518 110.147 19.0269C110.147 18.9271 110.122 18.8772 110.073 18.8772C110.073 18.8272 110.023 18.7524 109.923 18.6526C109.848 18.5528 109.798 18.4654 109.773 18.3906L109.736 18.3532C109.636 18.2533 109.561 18.0912 109.511 17.8666C109.486 17.7668 109.461 17.7294 109.436 17.7543C109.436 17.7793 109.424 17.7169 109.399 17.5672C109.399 17.5422 109.399 17.5048 109.399 17.4549C109.424 17.38 109.424 17.3301 109.399 17.3052C109.399 17.2802 109.386 17.2677 109.361 17.2677C109.361 17.2428 109.361 17.2178 109.361 17.1929C109.337 17.1679 109.324 17.1555 109.324 17.1555C109.349 17.1305 109.361 17.118 109.361 17.118C109.361 17.0681 109.349 17.0432 109.324 17.0432C109.324 17.0182 109.324 16.9933 109.324 16.9683V16.8935C109.324 16.7687 109.349 16.6814 109.399 16.6315C109.399 16.5816 109.411 16.5441 109.436 16.5192C109.461 16.4942 109.474 16.4693 109.474 16.4443C109.474 16.3944 109.499 16.3695 109.549 16.3695C109.599 16.3695 109.623 16.357 109.623 16.332C109.623 16.2821 109.636 16.2572 109.661 16.2572C109.711 16.2322 109.748 16.2073 109.773 16.1823C109.773 16.1574 109.786 16.1324 109.811 16.1075C109.86 16.0825 109.885 16.0576 109.885 16.0326C110.01 15.9578 110.147 15.9203 110.297 15.9203C110.597 15.9203 110.746 15.9952 110.746 16.1449C110.746 16.1948 110.671 16.2821 110.522 16.4069C110.497 16.4817 110.484 16.5317 110.484 16.5566C110.509 16.5566 110.497 16.5816 110.447 16.6315C110.472 16.7063 110.484 16.8061 110.484 16.9309C110.459 16.9309 110.447 16.9683 110.447 17.0432C110.472 17.0931 110.484 17.118 110.484 17.118C110.484 17.143 110.497 17.2178 110.522 17.3426C110.572 17.4674 110.609 17.5422 110.634 17.5672C110.634 17.5672 110.659 17.6295 110.709 17.7543C110.759 17.8541 110.784 17.9165 110.784 17.9414V18.0163C110.834 18.0912 110.859 18.1411 110.859 18.166C110.884 18.166 110.983 18.2159 111.158 18.3157C111.183 18.3407 111.233 18.3532 111.308 18.3532C111.432 18.428 111.52 18.4904 111.57 18.5403C111.645 18.5902 111.819 18.6401 112.094 18.69C112.194 18.715 112.231 18.7399 112.206 18.7649C112.206 18.7649 112.256 18.7649 112.356 18.7649C112.356 18.7649 112.356 18.7773 112.356 18.8023C112.356 18.8023 112.368 18.8023 112.393 18.8023C112.443 18.7773 112.493 18.7773 112.543 18.8023C112.593 18.8023 112.643 18.7898 112.693 18.7649H112.842C113.017 18.7649 113.204 18.7399 113.404 18.69L113.965 18.5403C114.14 18.5153 114.302 18.4654 114.452 18.3906C114.601 18.3157 114.739 18.2409 114.863 18.166C114.888 18.166 114.963 18.1286 115.088 18.0537C115.213 17.9539 115.362 17.8541 115.537 17.7543C115.512 17.6795 115.5 17.5796 115.5 17.4549C115.5 17.38 115.537 17.3426 115.612 17.3426C115.687 17.3176 115.737 17.2802 115.762 17.2303C115.687 17.1804 115.587 17.1555 115.462 17.1555C115.362 17.1555 115.325 17.118 115.35 17.0432C115.25 16.4942 115.1 15.9952 114.901 15.546C114.726 15.0969 114.514 14.5979 114.265 14.0489C114.24 13.9741 114.19 13.8493 114.115 13.6746C114.04 13.5 113.99 13.3627 113.965 13.2629C113.965 13.238 113.99 13.238 114.04 13.2629C114.09 13.2629 114.102 13.2504 114.077 13.2255C114.052 13.1007 114.028 12.976 114.003 12.8512C114.003 12.7264 113.99 12.6142 113.965 12.5144C113.94 12.4645 113.965 12.427 114.04 12.4021C114.115 12.3771 114.14 12.3397 114.115 12.2898C114.09 12.2399 114.04 12.2274 113.965 12.2524C113.89 12.2773 113.84 12.2648 113.815 12.2149L113.703 11.7658C113.703 11.641 113.678 11.5662 113.628 11.5412C113.603 11.5163 113.628 11.4664 113.703 11.3915C113.753 11.3666 113.778 11.3291 113.778 11.2792C113.778 11.2044 113.79 11.1545 113.815 11.1295C113.94 11.0547 113.99 10.9673 113.965 10.8675C113.94 10.7428 113.965 10.6305 114.04 10.5307C114.115 10.4309 114.177 10.3435 114.227 10.2687C114.277 10.1689 114.352 10.1065 114.452 10.0815C114.527 10.0316 114.552 10.0441 114.527 10.119C114.502 10.1938 114.502 10.2312 114.527 10.2312C114.651 10.2312 114.701 10.1689 114.676 10.0441C114.651 9.91933 114.689 9.80705 114.789 9.70724C114.963 9.55753 115.225 9.43277 115.575 9.33296C115.924 9.23315 116.186 9.17077 116.361 9.14582C116.41 9.14582 116.448 9.14582 116.473 9.14582C116.523 9.12086 116.56 9.10839 116.585 9.10839C116.71 9.10839 116.835 9.12086 116.959 9.14582C117.109 9.17077 117.246 9.19572 117.371 9.22067C117.471 9.24562 117.621 9.34543 117.82 9.5201C118.02 9.66981 118.17 9.70724 118.269 9.63238C118.494 9.43277 118.731 9.2581 118.981 9.10839C119.255 8.95867 119.43 8.89629 119.505 8.92125C119.704 8.9462 119.879 9.00858 120.028 9.10839C120.178 9.18324 120.228 9.43277 120.178 9.85695C120.153 10.0067 120.091 10.1314 119.991 10.2312C119.916 10.3061 119.841 10.4059 119.767 10.5307L119.505 10.9049C119.405 11.0796 119.28 11.2543 119.13 11.4289C119.005 11.6036 118.893 11.7159 118.793 11.7658C118.694 11.8157 118.594 11.903 118.494 12.0278C118.419 12.1276 118.319 12.2274 118.195 12.3272C118.07 12.427 117.933 12.5019 117.783 12.5518C117.658 12.5767 117.571 12.6017 117.521 12.6266C117.446 12.6516 117.334 12.6641 117.184 12.6641C117.059 12.6391 117.022 12.5892 117.072 12.5144C117.122 12.4894 117.134 12.4645 117.109 12.4395C117.084 12.3896 117.072 12.3522 117.072 12.3272C117.072 12.2773 117.097 12.2399 117.147 12.2149C117.221 12.19 117.271 12.1525 117.296 12.1026C117.321 12.0777 117.384 11.9904 117.483 11.8406C117.608 11.6909 117.658 11.6036 117.633 11.5787C117.633 11.5038 117.658 11.4414 117.708 11.3915C117.708 11.3416 117.708 11.3042 117.708 11.2792C117.708 11.2293 117.733 11.1919 117.783 11.1669C117.883 11.142 117.933 11.1046 117.933 11.0547V10.6055C117.933 10.5057 117.92 10.4059 117.895 10.3061C117.895 10.2063 117.87 10.1189 117.82 10.0441C117.621 9.79457 117.296 9.66981 116.847 9.66981C116.523 9.66981 116.211 9.74467 115.911 9.89438C115.587 10.0441 115.313 10.2936 115.088 10.6429C114.913 10.8925 114.826 11.1545 114.826 11.4289C114.826 11.6286 114.863 11.8282 114.938 12.0278C115.038 12.2274 115.125 12.4145 115.2 12.5892C115.275 12.7639 115.375 12.976 115.5 13.2255C115.649 13.475 115.762 13.6746 115.837 13.8243C115.961 14.024 116.099 14.261 116.248 14.5355C116.398 14.785 116.51 15.022 116.585 15.2466C116.61 15.2716 116.585 15.2965 116.51 15.3215C116.46 15.3215 116.448 15.3464 116.473 15.3963C116.498 15.4462 116.535 15.4712 116.585 15.4712C116.635 15.4712 116.672 15.4961 116.697 15.546C116.747 15.6209 116.747 15.6833 116.697 15.7332C116.672 15.7831 116.672 15.8579 116.697 15.9578C116.697 15.9827 116.722 16.0077 116.772 16.0326C116.822 16.0576 116.847 16.0825 116.847 16.1075C116.972 16.4318 117.034 16.6938 117.034 16.8935C117.259 16.7687 117.508 16.619 117.783 16.4443C118.057 16.2697 118.207 16.1075 118.232 15.9578C118.257 15.9078 118.294 15.8954 118.344 15.9203C118.419 15.9203 118.457 15.9453 118.457 15.9952C118.432 16.1698 118.219 16.4069 117.82 16.7063C117.446 17.0057 117.159 17.2178 116.959 17.3426C116.984 17.3675 116.972 17.4299 116.922 17.5297C116.872 17.6295 116.86 17.7044 116.885 17.7543C116.885 17.7793 116.872 17.8167 116.847 17.8666C116.822 17.8915 116.797 17.929 116.772 17.9789C116.772 18.0787 116.747 18.1535 116.697 18.2034V18.2783L116.585 18.3532C116.56 18.3781 116.523 18.4405 116.473 18.5403C116.448 18.6152 116.41 18.6775 116.361 18.7274H116.248C116.198 18.7773 116.173 18.8397 116.173 18.9146C116.123 18.9894 116.011 19.0768 115.837 19.1766C115.662 19.2514 115.55 19.3263 115.5 19.4011C115.5 19.4011 115.487 19.4011 115.462 19.4011C115.437 19.4011 115.4 19.4261 115.35 19.476H115.238C115.213 19.476 115.188 19.501 115.163 19.5509C115.138 19.5758 115.113 19.6008 115.088 19.6257C115.013 19.6257 114.976 19.6507 114.976 19.7006C114.876 19.7006 114.801 19.7131 114.751 19.738L114.377 19.8129C114.277 19.9127 114.19 19.9626 114.115 19.9626L114.077 19.9251C114.028 19.975 113.99 20 113.965 20H113.815C113.79 20 113.766 20.0125 113.741 20.0374C113.716 20.0624 113.691 20.0749 113.666 20.0749H113.591C113.566 20.0749 113.541 20.0749 113.516 20.0749C113.516 20.0998 113.491 20.1123 113.441 20.1123C113.366 20.1123 113.254 20.1123 113.104 20.1123C112.98 20.1123 112.88 20.1248 112.805 20.1497ZM112.431 19.8129C112.431 19.8129 112.456 19.8129 112.505 19.8129C112.58 19.7879 112.63 19.7754 112.655 19.7754C112.78 19.7754 112.892 19.7879 112.992 19.8129C113.092 19.8129 113.192 19.8129 113.291 19.8129C113.341 19.8129 113.366 19.7879 113.366 19.738H113.441C113.516 19.6631 113.553 19.6507 113.553 19.7006C113.578 19.7505 113.616 19.7505 113.666 19.7006C113.716 19.7006 113.741 19.6881 113.741 19.6631L113.89 19.5883C113.915 19.5883 113.928 19.5883 113.928 19.5883C113.928 19.5633 113.94 19.5509 113.965 19.5509H114.04C114.09 19.5509 114.14 19.5259 114.19 19.476C114.24 19.4261 114.265 19.4011 114.265 19.4011C114.265 19.4011 114.302 19.3637 114.377 19.2889C114.377 19.2889 114.389 19.2889 114.414 19.2889C114.439 19.2639 114.464 19.2514 114.489 19.2514C114.539 19.2015 114.589 19.1766 114.639 19.1766C114.639 19.1516 114.664 19.1267 114.714 19.1017C114.764 19.0518 114.789 19.0269 114.789 19.0269C114.814 19.0019 114.838 18.9894 114.863 18.9894C114.913 18.9645 114.938 18.9395 114.938 18.9146C114.988 18.9146 115.088 18.8272 115.238 18.6526C115.387 18.4779 115.487 18.2658 115.537 18.0163C115.537 17.9664 115.462 18.0038 115.313 18.1286C115.163 18.2284 115.088 18.2783 115.088 18.2783C115.013 18.3033 114.938 18.3532 114.863 18.428C114.789 18.4779 114.726 18.5029 114.676 18.5029C114.651 18.5029 114.614 18.5278 114.564 18.5777C114.539 18.6027 114.514 18.6152 114.489 18.6152C114.464 18.6152 114.452 18.6276 114.452 18.6526C114.452 18.6526 114.427 18.6401 114.377 18.6152C114.352 18.6651 114.277 18.715 114.152 18.7649C114.028 18.8148 113.94 18.8397 113.89 18.8397H113.778L113.741 18.8772C113.741 18.8772 113.728 18.8896 113.703 18.9146C113.678 18.9146 113.653 18.9146 113.628 18.9146L113.366 18.952H113.329C113.304 18.952 113.279 18.9645 113.254 18.9894C113.154 18.9894 113.042 19.0019 112.917 19.0269C112.792 19.0518 112.718 19.0643 112.693 19.0643H112.655C112.655 19.0393 112.643 19.0269 112.618 19.0269V19.0643H112.431C112.356 19.0643 112.268 19.0518 112.169 19.0269C112.094 18.977 112.031 18.952 111.981 18.952C111.956 18.952 111.944 18.9645 111.944 18.9894C111.944 18.9894 111.932 18.9894 111.907 18.9894H111.832C111.807 18.9894 111.794 18.977 111.794 18.952H111.607C111.607 18.8772 111.582 18.8647 111.532 18.9146H111.495C111.395 18.9146 111.308 18.8772 111.233 18.8023C111.183 18.7274 111.096 18.69 110.971 18.69L110.859 18.5777C110.859 18.6027 110.846 18.6276 110.821 18.6526C110.821 18.6526 110.821 18.6651 110.821 18.69C110.821 18.69 110.834 18.715 110.859 18.7649C110.908 18.7898 110.933 18.8148 110.933 18.8397L111.008 18.9894L111.158 19.1766L111.233 19.2514C111.258 19.2764 111.27 19.2889 111.27 19.2889C111.295 19.2889 111.32 19.3138 111.345 19.3637C111.395 19.3637 111.42 19.4011 111.42 19.476C111.844 19.7006 112.181 19.8129 112.431 19.8129ZM125.51 8.3224C125.435 8.3224 125.361 8.29744 125.286 8.24754C125.236 8.19763 125.161 8.13525 125.061 8.0604C125.011 8.03545 124.949 8.01049 124.874 7.98554C124.824 7.93564 124.799 7.86078 124.799 7.76097C124.774 7.73602 124.724 7.72354 124.649 7.72354C124.525 7.72354 124.462 7.63621 124.462 7.46155C124.462 7.26193 124.562 7.12469 124.762 7.04984L124.949 6.90012V6.93755L125.099 6.75041H125.173C125.323 6.75041 125.423 6.67555 125.473 6.52584C125.548 6.37613 125.697 6.27632 125.922 6.22641C126.072 6.17651 126.196 6.18899 126.296 6.26384C126.396 6.3387 126.521 6.37613 126.671 6.37613C126.82 6.37613 126.982 6.32622 127.157 6.22641L127.719 6.11413C127.793 6.11413 127.831 6.13908 127.831 6.18899C127.831 6.23889 127.756 6.30127 127.606 6.37613C127.481 6.45098 127.394 6.51336 127.344 6.56327L127.307 6.6007L127.269 6.67555L127.12 6.86269C126.97 7.03736 126.795 7.24945 126.596 7.49897C126.421 7.72354 126.234 7.91068 126.034 8.0604C125.81 8.23506 125.635 8.3224 125.51 8.3224ZM119.821 20.1123C119.671 20.1123 119.597 20.025 119.597 19.8503C119.597 19.7255 119.634 19.5758 119.709 19.4011C119.909 18.977 120.133 18.3781 120.383 17.6046C120.657 16.8311 120.994 16.1698 121.393 15.6209C121.668 15.072 121.917 14.5355 122.142 14.0115C122.391 13.4625 122.628 12.9136 122.853 12.3646C122.853 12.3646 122.828 12.3522 122.778 12.3272C122.753 12.2773 122.741 12.2274 122.741 12.1775C122.591 12.0777 122.429 11.9405 122.254 11.7658C122.104 11.5662 122.092 11.3666 122.217 11.1669C122.266 11.117 122.304 11.0921 122.329 11.0921C122.354 11.0921 122.366 11.0921 122.366 11.0921C122.366 11.0671 122.354 11.0547 122.329 11.0547C122.329 11.0297 122.329 11.0172 122.329 11.0172C122.329 10.9174 122.379 10.855 122.479 10.8301C122.578 10.8051 122.628 10.7677 122.628 10.7178C122.678 10.3685 122.978 10.1065 123.527 9.93181C124.076 9.75714 124.562 9.66981 124.986 9.66981C125.41 9.66981 125.623 9.73219 125.623 9.85695C125.623 9.90686 125.548 9.99419 125.398 10.119C125.323 10.1689 125.198 10.2811 125.024 10.4558C124.849 10.6305 124.687 10.8426 124.537 11.0921L124.238 11.5412C124.213 11.5911 124.175 11.6535 124.125 11.7284C124.1 11.7783 124.063 11.8282 124.013 11.8781C123.614 12.6017 123.29 13.213 123.04 13.7121C122.79 14.2111 122.491 14.8474 122.142 15.6209C122.092 15.7706 122.067 15.8704 122.067 15.9203C122.067 16.095 122.167 16.1823 122.366 16.1823C122.516 16.1823 122.666 16.1449 122.815 16.07L123.19 15.9203C123.789 15.3714 124.412 14.9098 125.061 14.5355C125.086 14.5355 125.099 14.5355 125.099 14.5355C125.124 14.5105 125.148 14.4981 125.173 14.4981C125.248 14.4981 125.298 14.548 125.323 14.6478C125.348 14.7226 125.323 14.785 125.248 14.8349C124.525 15.2341 123.851 15.7457 123.227 16.3695C123.202 16.4194 123.177 16.4693 123.152 16.5192C123.127 16.5691 123.09 16.619 123.04 16.6689C122.99 16.7188 122.915 16.8061 122.815 16.9309C122.741 17.0556 122.703 17.1305 122.703 17.1555C122.678 17.2303 122.641 17.2553 122.591 17.2303C122.566 17.2054 122.491 17.2428 122.366 17.3426C122.341 17.3675 122.316 17.4175 122.291 17.4923C122.291 17.5672 122.279 17.6295 122.254 17.6795C122.229 17.7543 122.179 17.8167 122.104 17.8666C122.054 17.8915 122.029 17.9165 122.029 17.9414C122.004 18.0413 121.955 18.1036 121.88 18.1286C121.83 18.1286 121.78 18.1535 121.73 18.2034C121.705 18.2284 121.705 18.2658 121.73 18.3157C121.755 18.3656 121.743 18.4155 121.693 18.4654C121.668 18.5403 121.643 18.5777 121.618 18.5777C121.593 18.5528 121.555 18.5653 121.505 18.6152C121.406 18.715 121.331 18.7649 121.281 18.7649C121.131 18.8148 121.069 18.8522 121.094 18.8772C121.144 18.9021 121.181 18.9271 121.206 18.952C121.256 18.952 121.219 18.9894 121.094 19.0643C121.044 19.0892 120.994 19.1641 120.944 19.2889C120.894 19.3887 120.844 19.4635 120.794 19.5134C120.719 19.5633 120.645 19.6008 120.57 19.6257C120.52 19.6507 120.457 19.7006 120.383 19.7754C120.158 20 119.971 20.1123 119.821 20.1123ZM124.35 30.9665C123.526 30.9665 122.853 30.8043 122.329 30.4799C121.805 30.1555 121.543 29.6814 121.543 29.0576C121.568 29.0327 121.592 28.9204 121.617 28.7208C121.642 28.5461 121.642 28.4338 121.617 28.3839L121.767 28.0845C121.867 27.9098 121.954 27.7975 122.029 27.7476H122.067V27.7102C122.067 27.6603 122.079 27.5979 122.104 27.5231C122.129 27.4732 122.154 27.4357 122.179 27.4108L122.329 27.1488L122.591 27.0365H122.628V26.9991C122.603 26.9242 122.715 26.762 122.965 26.5125C123.189 26.263 123.451 26.001 123.751 25.7265C124.05 25.452 124.262 25.2774 124.387 25.2025L125.023 24.6785C125.098 24.6037 125.198 24.5288 125.323 24.454C125.423 24.4041 125.51 24.3666 125.585 24.3417C125.66 24.2668 125.735 24.192 125.809 24.1171C125.909 24.0672 125.997 24.0173 126.071 23.9674C126.121 23.9175 126.184 23.8676 126.259 23.8177C126.358 23.7678 126.446 23.7303 126.521 23.7054C126.545 23.6555 126.608 23.6056 126.708 23.5557C126.758 23.5058 126.807 23.4683 126.857 23.4434C126.932 23.4184 126.982 23.3935 127.007 23.3685L127.793 22.9194C128.242 22.6449 128.529 22.4703 128.654 22.3954C128.779 22.3205 128.928 22.2332 129.103 22.1334C129.153 22.0835 129.215 22.0336 129.29 21.9837C129.39 21.9587 129.378 21.9338 129.253 21.9088C128.704 21.6843 128.267 21.4347 127.943 21.1603L127.868 21.048L127.793 20.9731C127.768 20.8983 127.731 20.8608 127.681 20.8608H127.643C127.569 20.8608 127.506 20.8359 127.456 20.786C127.356 20.7361 127.232 20.6488 127.082 20.524C126.957 20.3992 126.87 20.2994 126.82 20.2246C126.795 20.1497 126.758 20.0749 126.708 20C126.658 19.9251 126.62 19.8378 126.595 19.738C126.57 19.738 126.533 19.7006 126.483 19.6257C126.433 19.5758 126.408 19.4885 126.408 19.3637C126.383 19.3138 126.371 19.2764 126.371 19.2514C126.371 19.2015 126.358 19.1641 126.333 19.1392C126.308 19.0892 126.296 19.0269 126.296 18.952C126.296 18.8772 126.296 18.8148 126.296 18.7649V18.6152C126.271 18.5403 126.259 18.428 126.259 18.2783C126.259 18.0537 126.321 17.8167 126.446 17.5672C126.496 17.5173 126.521 17.4798 126.521 17.4549C126.62 17.2054 126.92 17.0806 127.419 17.0806C127.494 17.0806 127.569 17.0931 127.643 17.118C127.743 17.118 127.831 17.118 127.905 17.118H128.28C128.28 17.118 128.292 17.118 128.317 17.118C128.342 17.0931 128.367 17.0806 128.392 17.0806C128.392 17.0806 128.404 17.0806 128.429 17.0806C128.454 17.0556 128.479 17.0432 128.504 17.0432L128.617 17.0806C128.641 17.0806 128.679 17.0931 128.729 17.118C128.779 17.118 128.816 17.118 128.841 17.118H128.953L128.804 17.0432V16.9309C128.804 16.8061 128.779 16.6938 128.729 16.594C128.679 16.4942 128.629 16.4194 128.579 16.3695C128.629 16.3196 128.654 16.2697 128.654 16.2197C128.654 16.1698 128.629 16.1075 128.579 16.0326C128.554 15.9328 128.529 15.8455 128.504 15.7706C128.604 15.7207 128.629 15.6459 128.579 15.546C128.579 15.5211 128.567 15.4837 128.542 15.4338C128.517 15.3839 128.504 15.3339 128.504 15.284V14.7975L128.804 14.3109C128.829 14.286 128.829 14.2485 128.804 14.1986C128.804 14.1238 128.816 14.0614 128.841 14.0115C128.866 13.9117 128.916 13.8243 128.991 13.7495C129.091 13.6746 129.153 13.5873 129.178 13.4875C129.203 13.4625 129.215 13.3752 129.215 13.2255C129.365 13.1506 129.527 12.976 129.702 12.7015C129.727 12.6765 129.739 12.6266 129.739 12.5518C129.764 12.4769 129.789 12.427 129.814 12.4021C129.939 12.2773 130.076 12.1525 130.226 12.0278C130.376 11.903 130.538 11.7533 130.712 11.5787C130.712 11.5038 130.65 11.4539 130.525 11.4289C130.401 11.379 130.301 11.3291 130.226 11.2792C130.126 11.2044 130.001 11.1295 129.852 11.0547C129.727 10.9548 129.64 10.9049 129.59 10.9049C129.54 10.9049 129.502 10.9174 129.477 10.9424C129.477 10.9424 129.465 10.9424 129.44 10.9424C129.365 10.8176 129.278 10.7178 129.178 10.6429C129.103 10.5431 129.016 10.4558 128.916 10.3809C128.916 10.331 128.928 10.2936 128.953 10.2687C128.978 10.2188 128.991 10.1689 128.991 10.119C128.991 10.069 128.953 10.0191 128.879 9.96924C128.829 9.89438 128.804 9.81952 128.804 9.74467C128.804 9.69476 128.854 9.58248 128.953 9.40781C129.053 9.23315 129.128 9.14582 129.178 9.14582C129.278 9.14582 129.365 9.2082 129.44 9.33296C129.54 9.45772 129.59 9.58248 129.59 9.70724C129.64 9.73219 129.689 9.74467 129.739 9.74467C129.814 9.74467 129.864 9.75714 129.889 9.7821C129.989 9.90686 130.164 10.094 130.413 10.3435C130.663 10.5681 130.875 10.7053 131.049 10.7552C131.049 10.7802 131.099 10.7677 131.199 10.7178C131.324 10.6429 131.424 10.6055 131.498 10.6055C131.548 10.6055 131.586 10.593 131.611 10.5681C131.661 10.5182 131.711 10.4932 131.76 10.4932C131.835 10.4932 131.873 10.5182 131.873 10.5681C131.898 10.593 131.935 10.6055 131.985 10.6055C132.085 10.6055 132.172 10.5431 132.247 10.4184C132.297 10.3934 132.347 10.356 132.397 10.3061C132.472 10.2562 132.546 10.2188 132.621 10.1938C132.646 10.1938 132.696 10.2063 132.771 10.2312C132.871 10.2562 132.946 10.2687 132.996 10.2687C133.12 10.2687 133.22 10.2437 133.295 10.1938C133.395 10.1439 133.495 10.119 133.594 10.119C133.694 10.1689 133.757 10.2188 133.782 10.2687C133.807 10.2936 133.844 10.331 133.894 10.3809C134.019 10.4808 134.143 10.5681 134.268 10.6429C134.393 10.7178 134.505 10.8426 134.605 11.0172C134.655 10.9673 134.767 10.9424 134.942 10.9424C135.142 10.9424 135.379 10.9673 135.653 11.0172C135.952 11.0671 136.152 11.0796 136.252 11.0547C136.302 11.0547 136.339 11.0547 136.364 11.0547C136.414 11.0297 136.476 11.0172 136.551 11.0172C136.676 11.0172 136.726 11.0422 136.701 11.0921C136.676 11.117 136.701 11.1295 136.776 11.1295C136.826 11.1295 136.938 11.117 137.113 11.0921C137.312 11.0422 137.437 11.0172 137.487 11.0172C137.537 11.0422 137.562 11.0671 137.562 11.0921C137.587 11.117 137.624 11.142 137.674 11.1669C137.724 11.1669 137.824 11.1545 137.974 11.1295C138.148 11.1046 138.261 11.0921 138.31 11.0921C138.735 11.117 139.121 11.1046 139.471 11.0547C139.845 10.9798 140.244 10.9299 140.668 10.9049C140.768 10.9299 140.818 10.9923 140.818 11.0921C140.818 11.1919 140.768 11.2418 140.668 11.2418C140.643 11.2418 140.594 11.2667 140.519 11.3167C140.444 11.3416 140.381 11.3416 140.332 11.3167H140.107C140.057 11.3167 139.995 11.3291 139.92 11.3541C139.845 11.3541 139.77 11.379 139.695 11.4289C139.67 11.404 139.62 11.3915 139.546 11.3915C139.446 11.3915 139.333 11.4414 139.209 11.5412C139.084 11.641 138.959 11.7159 138.834 11.7658C138.834 11.641 138.785 11.5911 138.685 11.6161C138.61 11.641 138.535 11.641 138.46 11.6161C138.41 11.6161 138.31 11.6535 138.161 11.7284C138.036 11.7783 137.911 11.8282 137.786 11.8781C137.761 11.8032 137.674 11.7533 137.524 11.7284C137.425 11.7284 137.337 11.8032 137.262 11.9529C137.188 12.1026 136.851 12.165 136.252 12.1401C136.302 12.2399 136.327 12.3023 136.327 12.3272C136.352 12.3522 136.327 12.4145 136.252 12.5144C136.302 12.5393 136.339 12.5518 136.364 12.5518C136.414 12.5518 136.451 12.5643 136.476 12.5892C136.476 12.6641 136.514 12.7514 136.589 12.8512C136.689 12.951 136.751 13.0508 136.776 13.1506C136.826 13.2504 136.851 13.3378 136.851 13.4126C136.876 13.4875 136.888 13.5499 136.888 13.5998C136.888 13.6746 136.851 13.8493 136.776 14.1238C136.676 14.2236 136.551 14.3982 136.402 14.6478C136.302 14.7476 136.165 14.8848 135.99 15.0595C135.815 15.2341 135.665 15.3339 135.541 15.3589C135.516 15.3839 135.491 15.4213 135.466 15.4712C135.466 15.4961 135.453 15.5336 135.428 15.5835C135.329 15.6583 135.166 15.7706 134.942 15.9203C134.742 16.0451 134.618 16.1075 134.568 16.1075C134.518 16.1075 134.505 16.1075 134.53 16.1075C134.555 16.0825 134.53 16.07 134.455 16.07C134.405 16.07 134.368 16.0825 134.343 16.1075C134.343 16.1324 134.331 16.1574 134.306 16.1823H134.268C134.168 16.1823 134.044 16.2322 133.894 16.332C133.744 16.4069 133.682 16.4942 133.707 16.594C133.582 16.594 133.457 16.6065 133.332 16.6315C133.208 16.6564 133.12 16.7063 133.07 16.7812C133.021 16.8061 132.958 16.8685 132.883 16.9683C132.833 17.0432 132.759 17.1056 132.659 17.1555C132.559 17.1804 132.447 17.2054 132.322 17.2303C132.222 17.2303 132.135 17.2428 132.06 17.2677C132.01 17.2927 131.96 17.3176 131.91 17.3426C131.86 17.3675 131.81 17.405 131.76 17.4549C131.711 17.4798 131.648 17.4923 131.573 17.4923C131.498 17.4674 131.424 17.4674 131.349 17.4923C131.324 17.4923 131.299 17.5173 131.274 17.5672C131.249 17.5921 131.212 17.6046 131.162 17.6046C131.112 17.6046 131.074 17.5921 131.049 17.5672C131.024 17.5173 130.987 17.4923 130.937 17.4923C130.887 17.4923 130.862 17.5173 130.862 17.5672C130.862 17.6171 130.825 17.642 130.75 17.642C130.7 17.642 130.675 17.642 130.675 17.642C130.7 17.6171 130.675 17.6046 130.6 17.6046C129.976 17.6046 129.627 17.5796 129.552 17.5297C129.477 17.4798 129.378 17.405 129.253 17.3052C129.203 17.4549 129.128 17.5422 129.028 17.5672L128.691 17.6795L128.429 17.7917L128.093 17.904C127.993 17.9539 127.893 18.0038 127.793 18.0537C127.718 18.0787 127.656 18.1036 127.606 18.1286L127.456 18.2409C127.406 18.2908 127.381 18.3282 127.381 18.3532C127.331 18.3781 127.282 18.4904 127.232 18.69C127.207 18.7898 127.169 18.8772 127.119 18.952C127.069 19.0269 127.045 19.1267 127.045 19.2514C127.045 19.3762 127.094 19.5259 127.194 19.7006C127.244 19.8503 127.307 19.9626 127.381 20.0374C127.456 20.1123 127.656 20.2495 127.98 20.4491C128.03 20.4741 128.117 20.5115 128.242 20.5614C128.367 20.6113 128.442 20.6612 128.467 20.7111C128.542 20.8359 128.604 20.8983 128.654 20.8983C128.654 20.8983 128.691 20.8983 128.766 20.8983C128.816 20.8983 128.866 20.8858 128.916 20.8608C128.966 20.8608 129.003 20.8858 129.028 20.9357C129.178 20.9856 129.328 21.0355 129.477 21.0854C129.652 21.1603 129.814 21.2227 129.964 21.2726L130.451 21.4223C131.374 20.9482 132.035 20.6238 132.434 20.4491C132.833 20.2994 133.233 20.1622 133.632 20.0374C133.732 19.9875 133.844 19.9376 133.969 19.8877C134.118 19.8378 134.193 19.8503 134.193 19.9251C134.193 19.975 134.156 20.0374 134.081 20.1123C134.006 20.2121 133.906 20.2745 133.782 20.2994C133.457 20.3992 133.133 20.5489 132.808 20.7486C132.509 20.9731 131.998 21.2975 131.274 21.7217C133.195 22.4952 134.156 23.4683 134.156 24.6411C134.156 24.7409 134.143 24.8282 134.118 24.9031C134.118 24.978 134.106 25.0653 134.081 25.1651C134.056 25.19 133.969 25.3522 133.819 25.6517C133.694 25.976 133.632 26.1507 133.632 26.1757C133.507 26.3004 133.382 26.4377 133.258 26.5874C133.133 26.7371 133.008 26.8868 132.883 27.0365C132.784 27.1613 132.646 27.286 132.472 27.4108C132.322 27.5355 132.172 27.6603 132.022 27.7851C131.948 27.9098 131.748 28.072 131.424 28.2716C131.099 28.4962 130.775 28.7083 130.451 28.9079C130.126 29.1075 129.889 29.2323 129.739 29.2822L128.953 29.6939C128.879 29.7438 128.779 29.7812 128.654 29.8062C128.529 29.8561 128.417 29.8935 128.317 29.9185C128.242 29.9933 128.155 30.0432 128.055 30.0682C127.98 30.0931 127.88 30.1306 127.756 30.1805C127.706 30.2304 127.631 30.2678 127.531 30.2928C127.431 30.3177 127.344 30.3427 127.269 30.3676C127.194 30.4425 127.107 30.4799 127.007 30.4799L126.708 30.5548C126.633 30.5797 126.558 30.5922 126.483 30.5922C126.408 30.6171 126.321 30.6421 126.221 30.667C125.672 30.7918 125.248 30.8791 124.949 30.929C124.849 30.954 124.761 30.9665 124.687 30.9665C124.587 30.9665 124.474 30.9665 124.35 30.9665ZM131.498 16.7063C131.573 16.5816 131.661 16.5192 131.76 16.5192C131.835 16.5192 131.873 16.5317 131.873 16.5566C131.873 16.5816 131.91 16.594 131.985 16.594C132.06 16.594 132.135 16.5691 132.21 16.5192C132.284 16.4443 132.347 16.4069 132.397 16.4069C132.497 16.4069 132.522 16.4194 132.472 16.4443C132.447 16.4693 132.484 16.4817 132.584 16.4817C132.659 16.4817 132.821 16.4318 133.07 16.332C133.32 16.2073 133.507 16.095 133.632 15.9952C133.757 15.9453 133.956 15.808 134.231 15.5835C134.505 15.3339 134.705 15.2092 134.83 15.2092C134.904 15.2092 134.954 15.2217 134.979 15.2466C135.004 15.2716 135.029 15.284 135.054 15.284C135.079 15.0844 135.204 14.9098 135.428 14.76C135.678 14.5854 135.803 14.3483 135.803 14.0489C135.803 13.7994 135.641 13.4376 135.316 12.9635C135.291 12.9136 135.241 12.8886 135.166 12.8886C135.092 12.8637 135.054 12.8387 135.054 12.8138V12.7764C135.054 12.7264 135.029 12.6641 134.979 12.5892C134.954 12.4894 134.929 12.427 134.904 12.4021C134.805 12.3522 134.73 12.3023 134.68 12.2524C134.655 12.2025 134.605 12.1775 134.53 12.1775C134.455 12.1775 134.343 12.165 134.193 12.1401C134.069 12.1151 133.981 12.1026 133.931 12.1026C133.906 12.0527 133.856 11.9405 133.782 11.7658C133.707 11.5911 133.594 11.5038 133.445 11.5038C133.345 11.5038 133.245 11.5662 133.145 11.6909C133.07 11.7907 132.996 11.8781 132.921 11.9529C132.871 11.9779 132.784 12.0028 132.659 12.0278C132.559 12.0527 132.497 12.0777 132.472 12.1026C132.322 12.2025 132.147 12.3397 131.948 12.5144C131.773 12.6641 131.598 12.7764 131.424 12.8512C131.349 13.0259 131.212 13.1881 131.012 13.3378C130.837 13.4875 130.675 13.5998 130.525 13.6746C130.451 13.8243 130.351 13.9741 130.226 14.1238C130.126 14.2735 130.051 14.4232 130.001 14.5729C130.001 14.5979 129.989 14.6228 129.964 14.6478C129.964 14.6478 129.964 14.6727 129.964 14.7226C129.964 14.7975 129.964 14.8723 129.964 14.9472C129.989 14.9971 129.951 15.0345 129.852 15.0595V15.6583C130.051 15.7332 130.139 15.8954 130.114 16.1449C130.263 16.095 130.388 16.1075 130.488 16.1823V16.3695H130.525C130.675 16.3695 130.862 16.4194 131.087 16.5192C131.311 16.594 131.449 16.6564 131.498 16.7063ZM134.493 19.8877C134.493 19.8877 134.48 19.8503 134.455 19.7754C134.43 19.7006 134.443 19.6631 134.493 19.6631C134.543 19.6881 134.593 19.7006 134.642 19.7006C134.692 19.7006 134.73 19.7006 134.755 19.7006C134.805 19.7006 134.817 19.6881 134.792 19.6631C134.792 19.6382 134.805 19.6257 134.83 19.6257H134.979L135.092 19.476C135.216 19.476 135.341 19.4386 135.466 19.3637C135.591 19.2889 135.703 19.2265 135.803 19.1766C135.853 19.1766 135.903 19.1766 135.952 19.1766C136.027 19.1516 136.102 19.1392 136.177 19.1392C136.352 19.1392 136.476 19.1766 136.551 19.2514V19.2889C136.551 19.3388 136.464 19.3887 136.289 19.4386C136.14 19.4635 136.04 19.501 135.99 19.5509C135.94 19.5509 135.89 19.5633 135.84 19.5883C135.815 19.6132 135.778 19.6382 135.728 19.6631C135.703 19.6881 135.665 19.7006 135.616 19.7006C135.566 19.6756 135.516 19.6756 135.466 19.7006C135.391 19.7505 135.266 19.8004 135.092 19.8503C134.942 19.8752 134.842 19.8877 134.792 19.8877C134.742 19.8877 134.705 19.8877 134.68 19.8877C134.68 19.8628 134.618 19.8628 134.493 19.8877ZM125.248 30.1056C125.323 30.1056 125.41 30.0807 125.51 30.0308C125.61 29.9809 125.697 29.9559 125.772 29.9559C126.121 29.906 126.558 29.8436 127.082 29.7688C127.606 29.7189 128.105 29.5816 128.579 29.3571C129.902 28.7582 130.837 28.1094 131.386 27.4108C131.935 26.7121 132.222 26.0509 132.247 25.4271C132.272 25.3772 132.297 25.3148 132.322 25.24C132.347 25.19 132.359 25.1526 132.359 25.1277C132.409 25.0528 132.422 25.0029 132.397 24.978C132.322 24.928 132.26 24.8407 132.21 24.716C132.16 24.6161 132.147 24.5163 132.172 24.4165C132.147 24.3916 132.085 24.3167 131.985 24.192C131.91 24.0672 131.873 23.9549 131.873 23.8551H131.798C131.648 23.7803 131.536 23.668 131.461 23.5183C131.112 23.144 130.613 22.7946 129.964 22.4703C129.19 22.9444 128.404 23.4434 127.606 23.9674C126.807 24.4914 126.084 25.0403 125.435 25.6142C124.961 26.0135 124.574 26.4002 124.275 26.7745C123.975 27.1737 123.751 27.5231 123.601 27.8225C123.576 27.8724 123.539 27.8849 123.489 27.8599C123.439 27.8599 123.402 27.8849 123.377 27.9348V28.0096C123.377 28.0595 123.402 28.1219 123.451 28.1968C123.501 28.2716 123.514 28.334 123.489 28.3839C123.464 28.5087 123.439 28.621 123.414 28.7208C123.389 28.8455 123.377 28.9703 123.377 29.0951C123.377 29.2697 123.426 29.4194 123.526 29.5442C123.601 29.6191 123.713 29.6939 123.863 29.7688C123.913 29.7937 123.963 29.8187 124.013 29.8436C124.038 29.8686 124.075 29.8935 124.125 29.9185C124.175 29.9434 124.237 29.9434 124.312 29.9185C124.362 29.9185 124.425 29.9185 124.499 29.9185L124.761 30.0308C124.836 30.0308 124.911 30.0432 124.986 30.0682C125.061 30.1181 125.148 30.1306 125.248 30.1056ZM139.411 20.1123C139.261 20.1123 139.186 20.025 139.186 19.8503C139.186 19.7255 139.224 19.5758 139.298 19.4011C139.498 18.977 139.735 18.3781 140.01 17.6046C140.284 16.8311 140.621 16.1698 141.02 15.6209L142.48 12.3646C142.48 12.3646 142.455 12.3522 142.405 12.3272C142.355 12.2773 142.33 12.2274 142.33 12.1775C142.18 12.0777 142.018 11.9405 141.844 11.7658C141.694 11.5662 141.681 11.3666 141.806 11.1669C141.856 11.117 141.893 11.0921 141.918 11.0921C141.943 11.0921 141.956 11.0921 141.956 11.0921V11.0172C141.956 10.9174 141.993 10.855 142.068 10.8301C142.168 10.8051 142.23 10.7677 142.255 10.7178C142.305 10.3685 142.592 10.1065 143.116 9.93181C143.665 9.75714 144.152 9.66981 144.576 9.66981C145 9.66981 145.212 9.73219 145.212 9.85695C145.212 9.93181 145.137 10.0191 144.988 10.119C144.938 10.1689 144.813 10.2811 144.613 10.4558C144.439 10.6305 144.276 10.8426 144.127 11.0921L143.865 11.5412L143.603 11.8781C143.203 12.6017 142.879 13.213 142.63 13.7121C142.38 14.2111 142.081 14.8474 141.731 15.6209C141.656 15.7706 141.619 15.8954 141.619 15.9952C141.619 16.1199 141.669 16.1823 141.769 16.1823C141.819 16.1823 141.869 16.1698 141.918 16.1449C141.993 16.095 142.068 16.0576 142.143 16.0326C142.343 15.9078 142.505 15.7956 142.63 15.6958C142.779 15.571 142.941 15.4462 143.116 15.3215C143.191 15.2466 143.253 15.2466 143.303 15.3215C143.353 15.3714 143.353 15.4462 143.303 15.546C143.203 15.7457 143.129 15.8704 143.079 15.9203C143.054 15.9453 143.016 15.9702 142.966 15.9952C142.917 16.0201 142.804 16.1324 142.63 16.332L142.48 16.6315C142.43 16.6814 142.368 16.7812 142.293 16.9309C142.243 17.0556 142.218 17.1305 142.218 17.1555C142.218 17.2054 142.193 17.2303 142.143 17.2303C142.093 17.2054 142.018 17.2428 141.918 17.3426C141.893 17.3675 141.881 17.4175 141.881 17.4923C141.906 17.5672 141.893 17.6295 141.844 17.6795C141.819 17.7543 141.781 17.8167 141.731 17.8666C141.681 17.8915 141.656 17.9165 141.656 17.9414C141.631 18.0413 141.582 18.1036 141.507 18.1286C141.457 18.1286 141.407 18.1535 141.357 18.2034C141.332 18.2034 141.32 18.2284 141.32 18.2783C141.32 18.4779 141.295 18.5653 141.245 18.5403C141.195 18.5153 141.145 18.5403 141.095 18.6152C141.045 18.715 140.983 18.7649 140.908 18.7649C140.758 18.8148 140.696 18.8522 140.721 18.8772C140.746 18.9021 140.783 18.9271 140.833 18.952C140.883 18.952 140.846 18.9894 140.721 19.0643C140.646 19.0892 140.584 19.1641 140.534 19.2889C140.484 19.3887 140.434 19.4635 140.384 19.5134C140.334 19.5633 140.272 19.6008 140.197 19.6257C140.122 19.6507 140.06 19.7006 140.01 19.7754C139.785 20 139.585 20.1123 139.411 20.1123ZM150.564 19.8129C150.465 19.8129 150.377 19.8129 150.302 19.8129C150.228 19.7879 150.153 19.763 150.078 19.738C149.828 19.6881 149.604 19.6132 149.404 19.5134C149.229 19.4136 149.08 19.2265 148.955 18.952C148.93 18.8272 148.868 18.6651 148.768 18.4654C148.693 18.2658 148.643 18.0787 148.618 17.904C148.593 17.7793 148.581 17.6295 148.581 17.4549C148.556 17.3301 148.543 17.1679 148.543 16.9683C148.493 16.7188 148.468 16.4942 148.468 16.2946C148.493 16.095 148.506 15.8579 148.506 15.5835C148.506 15.309 148.518 15.1094 148.543 14.9846C148.593 14.76 148.618 14.6478 148.618 14.6478C148.618 14.6228 148.618 14.4981 148.618 14.2735C148.643 13.9741 148.656 13.6622 148.656 13.3378C148.656 13.0134 148.668 12.7514 148.693 12.5518C148.768 11.8032 148.618 11.4289 148.244 11.4289C148.094 11.4289 147.894 11.4913 147.645 11.6161C147.62 11.6909 147.57 11.7408 147.495 11.7658C147.445 11.7658 147.37 11.7907 147.271 11.8406L147.084 11.9529C147.084 11.9779 147.059 11.9904 147.009 11.9904C146.959 11.9654 146.934 11.9779 146.934 12.0278C146.959 12.1276 146.946 12.19 146.896 12.2149C146.871 12.2399 146.834 12.2274 146.784 12.1775L146.372 12.4769C146.372 12.5019 146.335 12.5518 146.26 12.6266L146.223 12.6641C146.123 12.7639 146.036 12.8138 145.961 12.8138L145.848 12.9261C145.848 12.951 145.823 13.0009 145.774 13.0758C145.749 13.1257 145.686 13.1382 145.586 13.1132L145.399 13.3003C145.299 13.4501 145.212 13.5374 145.137 13.5623C145.087 13.5873 145.025 13.6123 144.95 13.6372L144.651 14.0115L144.501 14.0489C144.501 14.1487 144.389 14.2984 144.164 14.4981C143.965 14.6977 143.827 14.8349 143.752 14.9098C143.678 14.9846 143.603 15.022 143.528 15.022C143.478 15.022 143.453 14.9971 143.453 14.9472C143.453 14.9222 143.515 14.8224 143.64 14.6478C143.74 14.548 143.89 14.3608 144.089 14.0863C144.314 13.8119 144.439 13.6871 144.464 13.7121C144.588 13.5873 144.676 13.4625 144.726 13.3378C144.775 13.1881 144.863 13.0633 144.988 12.9635C144.988 12.9884 144.988 13.0134 144.988 13.0384C145.013 13.0384 145.025 13.0384 145.025 13.0384C145.075 13.0384 145.137 12.976 145.212 12.8512C145.287 12.7015 145.337 12.6391 145.362 12.6641L145.998 12.1026C145.998 12.0777 146.061 12.0278 146.185 11.9529C146.285 11.903 146.347 11.8781 146.372 11.8781C146.397 11.8781 146.46 11.8032 146.56 11.6535L146.822 11.4664C146.846 11.4165 146.871 11.4289 146.896 11.5038C146.946 11.5537 146.984 11.5662 147.009 11.5412L147.121 11.2792C147.171 11.2044 147.246 11.142 147.346 11.0921C147.47 11.0172 147.595 10.9424 147.72 10.8675C148.019 10.5681 148.244 10.4184 148.394 10.4184H148.543C148.868 10.2936 149.167 10.2312 149.442 10.2312C149.841 10.2312 150.153 10.3809 150.377 10.6804C150.427 10.7552 150.477 10.8925 150.527 11.0921C150.577 11.117 150.589 11.1545 150.564 11.2044C150.564 11.2293 150.577 11.2667 150.602 11.3167C150.627 11.3666 150.677 11.4289 150.752 11.5038C150.826 11.5537 150.864 11.6161 150.864 11.6909V11.7658C150.864 11.8656 150.801 11.9529 150.677 12.0278C150.801 12.1276 150.851 12.19 150.826 12.2149C150.826 12.2149 150.814 12.2524 150.789 12.3272L150.714 12.8512C150.689 13.0259 150.652 13.1631 150.602 13.2629C150.552 13.3378 150.502 13.475 150.452 13.6746C150.552 13.8243 150.552 13.9242 150.452 13.9741H150.377L150.34 14.1238C150.34 14.1737 150.365 14.2236 150.415 14.2735L150.302 14.4981C150.327 14.4731 150.34 14.4731 150.34 14.4981C150.365 14.4981 150.377 14.4981 150.377 14.4981C150.352 14.548 150.315 14.6478 150.265 14.7975C150.215 14.9222 150.178 15.022 150.153 15.0969C150.128 15.2217 150.078 15.284 150.003 15.284C149.928 15.284 149.903 15.3464 149.928 15.4712C149.953 15.4961 149.966 15.5835 149.966 15.7332C149.99 15.8579 149.978 15.9203 149.928 15.9203L149.853 16.3695V16.4817C149.853 16.6065 149.828 16.7313 149.778 16.856C149.753 16.9808 149.728 17.1056 149.704 17.2303C149.679 17.3551 149.654 17.4923 149.629 17.642C149.629 17.7668 149.629 17.8915 149.629 18.0163C149.629 18.1161 149.629 18.2284 149.629 18.3532C149.654 18.453 149.679 18.5528 149.704 18.6526C149.704 18.6775 149.741 18.7524 149.816 18.8772C149.891 19.0019 149.928 19.0768 149.928 19.1017L150.04 19.214C150.09 19.239 150.165 19.239 150.265 19.214C150.39 19.1891 150.477 19.2015 150.527 19.2514C150.752 19.2764 151.038 19.1641 151.388 18.9146C151.762 18.6401 152.099 18.3407 152.398 18.0163C152.473 17.9414 152.548 17.904 152.623 17.904C152.673 17.904 152.71 17.9414 152.735 18.0163C152.76 18.0912 152.735 18.191 152.66 18.3157C152.261 18.8896 151.887 19.2889 151.538 19.5134C151.188 19.7131 150.864 19.8129 150.564 19.8129Z" fill="#361921"/>
</svg>
